<mxfile host="Electron" agent="Mozilla/5.0 (Windows NT 10.0; Win64; x64) AppleWebKit/537.36 (KHTML, like Gecko) draw.io/26.0.4 Chrome/128.0.6613.186 Electron/32.2.5 Safari/537.36" version="26.0.4" pages="3">
  <diagram name="第 1 页" id="nr01dpjci6zuxXjNMyAL">
    <mxGraphModel dx="1687" dy="1024" grid="1" gridSize="10" guides="1" tooltips="1" connect="1" arrows="1" fold="1" page="1" pageScale="1" pageWidth="1169" pageHeight="827" math="0" shadow="0">
      <root>
        <mxCell id="0" />
        <mxCell id="1" parent="0" />
        <mxCell id="CMXorDokihR4swAWJHBv-3" style="edgeStyle=orthogonalEdgeStyle;rounded=0;orthogonalLoop=1;jettySize=auto;html=1;entryDx=0;entryDy=0;noEdgeStyle=1;orthogonal=1;" parent="1" source="CMXorDokihR4swAWJHBv-1" target="CMXorDokihR4swAWJHBv-2" edge="1">
          <mxGeometry relative="1" as="geometry">
            <Array as="points">
              <mxPoint x="592" y="225.14583333333334" />
              <mxPoint x="668" y="25" />
            </Array>
          </mxGeometry>
        </mxCell>
        <mxCell id="CMXorDokihR4swAWJHBv-5" style="edgeStyle=orthogonalEdgeStyle;rounded=0;orthogonalLoop=1;jettySize=auto;html=1;noEdgeStyle=1;orthogonal=1;" parent="1" source="CMXorDokihR4swAWJHBv-1" target="CMXorDokihR4swAWJHBv-4" edge="1">
          <mxGeometry relative="1" as="geometry">
            <Array as="points">
              <mxPoint x="594" y="233.14583333333334" />
              <mxPoint x="668" y="105" />
            </Array>
          </mxGeometry>
        </mxCell>
        <mxCell id="CMXorDokihR4swAWJHBv-9" style="edgeStyle=orthogonalEdgeStyle;rounded=0;orthogonalLoop=1;jettySize=auto;html=1;entryDx=0;entryDy=0;noEdgeStyle=1;orthogonal=1;" parent="1" source="CMXorDokihR4swAWJHBv-1" target="CMXorDokihR4swAWJHBv-6" edge="1">
          <mxGeometry relative="1" as="geometry">
            <Array as="points">
              <mxPoint x="596" y="241.14583333333334" />
              <mxPoint x="668" y="185" />
            </Array>
          </mxGeometry>
        </mxCell>
        <mxCell id="CMXorDokihR4swAWJHBv-10" style="edgeStyle=orthogonalEdgeStyle;rounded=0;orthogonalLoop=1;jettySize=auto;html=1;entryDx=0;entryDy=0;noEdgeStyle=1;orthogonal=1;" parent="1" source="CMXorDokihR4swAWJHBv-1" target="CMXorDokihR4swAWJHBv-7" edge="1">
          <mxGeometry relative="1" as="geometry">
            <Array as="points">
              <mxPoint x="594" y="249.14583333333334" />
              <mxPoint x="668" y="265" />
            </Array>
          </mxGeometry>
        </mxCell>
        <mxCell id="CMXorDokihR4swAWJHBv-94" style="edgeStyle=orthogonalEdgeStyle;rounded=0;orthogonalLoop=1;jettySize=auto;html=1;entryDx=0;entryDy=0;noEdgeStyle=1;orthogonal=1;" parent="1" source="CMXorDokihR4swAWJHBv-1" target="CMXorDokihR4swAWJHBv-93" edge="1">
          <mxGeometry relative="1" as="geometry">
            <Array as="points">
              <mxPoint x="592" y="257.14583333333337" />
              <mxPoint x="668" y="345" />
            </Array>
          </mxGeometry>
        </mxCell>
        <mxCell id="CMXorDokihR4swAWJHBv-1" value="&lt;div style=&quot;color: rgb(56, 58, 66); font-family: &amp;quot;Cascadia Mono Seimibold&amp;quot;, &amp;quot;JetBrains Mono Semibold&amp;quot;, Consolas, monospace, &amp;quot;Courier New&amp;quot;, Consolas, &amp;quot;Courier New&amp;quot;, monospace; font-weight: normal; font-size: 18px; line-height: 24px; white-space: pre;&quot;&gt;&lt;div style=&quot;&quot;&gt;&lt;span style=&quot;color: rgb(64, 120, 242);&quot;&gt;gpio_interrupt_task&lt;/span&gt;&lt;/div&gt;&lt;/div&gt;" style="text;whiteSpace=wrap;html=1;align=center;verticalAlign=middle;fillColor=#f5f5f5;fontColor=#333333;strokeColor=#666666;" parent="1" vertex="1">
          <mxGeometry x="340" y="216.14583333333334" width="240" height="50" as="geometry" />
        </mxCell>
        <mxCell id="CMXorDokihR4swAWJHBv-2" value="&lt;div style=&quot;color: rgb(56, 58, 66); font-family: &amp;quot;Cascadia Mono Seimibold&amp;quot;, &amp;quot;JetBrains Mono Semibold&amp;quot;, Consolas, monospace, &amp;quot;Courier New&amp;quot;, Consolas, &amp;quot;Courier New&amp;quot;, monospace; font-weight: normal; font-size: 18px; line-height: 24px; white-space: pre;&quot;&gt;&lt;div style=&quot;line-height: 24px;&quot;&gt;&lt;span style=&quot;color: rgb(64, 120, 242);&quot;&gt;xQueueReceive&lt;/span&gt;&lt;/div&gt;&lt;/div&gt;" style="text;whiteSpace=wrap;html=1;align=center;verticalAlign=middle;fillColor=#f5f5f5;fontColor=#333333;strokeColor=#666666;" parent="1" vertex="1">
          <mxGeometry x="710" width="240" height="50" as="geometry" />
        </mxCell>
        <mxCell id="CMXorDokihR4swAWJHBv-4" value="&lt;div style=&quot;color: rgb(56, 58, 66); font-family: &amp;quot;Cascadia Mono Seimibold&amp;quot;, &amp;quot;JetBrains Mono Semibold&amp;quot;, Consolas, monospace, &amp;quot;Courier New&amp;quot;, Consolas, &amp;quot;Courier New&amp;quot;, monospace; font-weight: normal; font-size: 18px; line-height: 24px; white-space: pre;&quot;&gt;&lt;div style=&quot;line-height: 24px;&quot;&gt;&lt;div style=&quot;line-height: 24px;&quot;&gt;&lt;span style=&quot;color: rgb(64, 120, 242);&quot;&gt;opt4060_read_color&lt;/span&gt;&lt;/div&gt;&lt;/div&gt;&lt;/div&gt;" style="text;whiteSpace=wrap;html=1;align=center;verticalAlign=middle;fillColor=#f5f5f5;fontColor=#333333;strokeColor=#666666;" parent="1" vertex="1">
          <mxGeometry x="710" y="80" width="240" height="50" as="geometry" />
        </mxCell>
        <mxCell id="CMXorDokihR4swAWJHBv-6" value="&lt;div style=&quot;color: rgb(56, 58, 66); font-family: &amp;quot;Cascadia Mono Seimibold&amp;quot;, &amp;quot;JetBrains Mono Semibold&amp;quot;, Consolas, monospace, &amp;quot;Courier New&amp;quot;, Consolas, &amp;quot;Courier New&amp;quot;, monospace; font-weight: normal; font-size: 18px; line-height: 24px; white-space: pre;&quot;&gt;&lt;div style=&quot;line-height: 24px;&quot;&gt;&lt;div style=&quot;line-height: 24px;&quot;&gt;&lt;div style=&quot;line-height: 24px;&quot;&gt;&lt;span style=&quot;color: rgb(64, 120, 242);&quot;&gt;gpio_get_level&lt;/span&gt;&lt;/div&gt;&lt;/div&gt;&lt;/div&gt;&lt;/div&gt;" style="text;whiteSpace=wrap;html=1;align=center;verticalAlign=middle;fillColor=#f5f5f5;fontColor=#333333;strokeColor=#666666;" parent="1" vertex="1">
          <mxGeometry x="710" y="160" width="240" height="50" as="geometry" />
        </mxCell>
        <mxCell id="CMXorDokihR4swAWJHBv-7" value="&lt;div style=&quot;color: rgb(56, 58, 66); font-family: &amp;quot;Cascadia Mono Seimibold&amp;quot;, &amp;quot;JetBrains Mono Semibold&amp;quot;, Consolas, monospace, &amp;quot;Courier New&amp;quot;, Consolas, &amp;quot;Courier New&amp;quot;, monospace; font-weight: normal; font-size: 18px; line-height: 24px; white-space: pre;&quot;&gt;&lt;div style=&quot;line-height: 24px;&quot;&gt;&lt;div style=&quot;line-height: 24px;&quot;&gt;&lt;div style=&quot;line-height: 24px;&quot;&gt;&lt;div style=&quot;line-height: 24px;&quot;&gt;&lt;span style=&quot;color: rgb(64, 120, 242);&quot;&gt;predict_color&lt;/span&gt;&lt;/div&gt;&lt;/div&gt;&lt;/div&gt;&lt;/div&gt;&lt;/div&gt;" style="text;whiteSpace=wrap;html=1;align=center;verticalAlign=middle;fillColor=#f5f5f5;fontColor=#333333;strokeColor=#666666;" parent="1" vertex="1">
          <mxGeometry x="710" y="240" width="240" height="50" as="geometry" />
        </mxCell>
        <mxCell id="CMXorDokihR4swAWJHBv-20" style="edgeStyle=orthogonalEdgeStyle;rounded=0;orthogonalLoop=1;jettySize=auto;html=1;entryDx=0;entryDy=0;noEdgeStyle=1;orthogonal=1;" parent="1" source="CMXorDokihR4swAWJHBv-12" target="CMXorDokihR4swAWJHBv-126" edge="1">
          <mxGeometry relative="1" as="geometry">
            <mxPoint x="787.5" y="1394.9999999999995" as="targetPoint" />
            <Array as="points">
              <mxPoint x="592" y="777.9671717171717" />
              <mxPoint x="668" y="425" />
            </Array>
          </mxGeometry>
        </mxCell>
        <mxCell id="CMXorDokihR4swAWJHBv-29" style="edgeStyle=orthogonalEdgeStyle;rounded=0;orthogonalLoop=1;jettySize=auto;html=1;exitDx=0;exitDy=0;entryDx=0;entryDy=0;noEdgeStyle=1;orthogonal=1;exitPerimeter=0;" parent="1" source="CMXorDokihR4swAWJHBv-12" target="CMXorDokihR4swAWJHBv-28" edge="1">
          <mxGeometry relative="1" as="geometry">
            <Array as="points">
              <mxPoint x="594" y="782.5126262626262" />
              <mxPoint x="668" y="505" />
            </Array>
          </mxGeometry>
        </mxCell>
        <mxCell id="CMXorDokihR4swAWJHBv-41" style="edgeStyle=orthogonalEdgeStyle;rounded=0;orthogonalLoop=1;jettySize=auto;html=1;noEdgeStyle=1;orthogonal=1;entryDx=0;entryDy=0;" parent="1" source="CMXorDokihR4swAWJHBv-12" target="9-8ZHkOtHVzXQF-S8PlC-1" edge="1">
          <mxGeometry relative="1" as="geometry">
            <mxPoint x="700" y="1635" as="targetPoint" />
            <Array as="points">
              <mxPoint x="596" y="787.0580808080807" />
              <mxPoint x="668" y="585" />
            </Array>
          </mxGeometry>
        </mxCell>
        <mxCell id="CMXorDokihR4swAWJHBv-42" style="edgeStyle=orthogonalEdgeStyle;rounded=0;orthogonalLoop=1;jettySize=auto;html=1;entryDx=0;entryDy=0;noEdgeStyle=1;orthogonal=1;" parent="1" source="CMXorDokihR4swAWJHBv-12" target="CMXorDokihR4swAWJHBv-36" edge="1">
          <mxGeometry relative="1" as="geometry">
            <Array as="points">
              <mxPoint x="598" y="791.6035353535352" />
              <mxPoint x="668" y="665" />
            </Array>
          </mxGeometry>
        </mxCell>
        <mxCell id="CMXorDokihR4swAWJHBv-43" style="edgeStyle=orthogonalEdgeStyle;rounded=0;orthogonalLoop=1;jettySize=auto;html=1;entryDx=0;entryDy=0;noEdgeStyle=1;orthogonal=1;" parent="1" source="CMXorDokihR4swAWJHBv-12" target="CMXorDokihR4swAWJHBv-30" edge="1">
          <mxGeometry relative="1" as="geometry">
            <Array as="points">
              <mxPoint x="600" y="796.1489898989897" />
              <mxPoint x="668" y="745" />
            </Array>
          </mxGeometry>
        </mxCell>
        <mxCell id="CMXorDokihR4swAWJHBv-44" style="edgeStyle=orthogonalEdgeStyle;rounded=0;orthogonalLoop=1;jettySize=auto;html=1;entryDx=0;entryDy=0;noEdgeStyle=1;orthogonal=1;" parent="1" source="CMXorDokihR4swAWJHBv-12" target="CMXorDokihR4swAWJHBv-31" edge="1">
          <mxGeometry relative="1" as="geometry">
            <Array as="points">
              <mxPoint x="602" y="800.6944444444442" />
              <mxPoint x="668" y="825" />
            </Array>
          </mxGeometry>
        </mxCell>
        <mxCell id="CMXorDokihR4swAWJHBv-45" style="edgeStyle=orthogonalEdgeStyle;rounded=0;orthogonalLoop=1;jettySize=auto;html=1;entryDx=0;entryDy=0;noEdgeStyle=1;orthogonal=1;" parent="1" source="CMXorDokihR4swAWJHBv-12" target="CMXorDokihR4swAWJHBv-32" edge="1">
          <mxGeometry relative="1" as="geometry">
            <Array as="points">
              <mxPoint x="600" y="805.2398989898987" />
              <mxPoint x="668" y="905" />
            </Array>
          </mxGeometry>
        </mxCell>
        <mxCell id="CMXorDokihR4swAWJHBv-46" style="edgeStyle=orthogonalEdgeStyle;rounded=0;orthogonalLoop=1;jettySize=auto;html=1;entryDx=0;entryDy=0;noEdgeStyle=1;orthogonal=1;" parent="1" source="CMXorDokihR4swAWJHBv-12" target="TMxWmTK1whZgZBAUiT3e-1" edge="1">
          <mxGeometry relative="1" as="geometry">
            <Array as="points">
              <mxPoint x="598" y="809.7853535353532" />
              <mxPoint x="668" y="985" />
            </Array>
            <mxPoint x="685" y="905" as="targetPoint" />
          </mxGeometry>
        </mxCell>
        <mxCell id="CMXorDokihR4swAWJHBv-47" style="edgeStyle=orthogonalEdgeStyle;rounded=0;orthogonalLoop=1;jettySize=auto;html=1;entryDx=0;entryDy=0;noEdgeStyle=1;orthogonal=1;" parent="1" source="CMXorDokihR4swAWJHBv-12" target="CMXorDokihR4swAWJHBv-129" edge="1">
          <mxGeometry relative="1" as="geometry">
            <mxPoint x="700" y="2355" as="targetPoint" />
            <Array as="points">
              <mxPoint x="596" y="814.3308080808077" />
              <mxPoint x="668" y="1065" />
            </Array>
          </mxGeometry>
        </mxCell>
        <mxCell id="CMXorDokihR4swAWJHBv-49" style="edgeStyle=orthogonalEdgeStyle;rounded=0;orthogonalLoop=1;jettySize=auto;html=1;entryDx=0;entryDy=0;noEdgeStyle=1;orthogonal=1;" parent="1" source="CMXorDokihR4swAWJHBv-12" target="CMXorDokihR4swAWJHBv-154" edge="1">
          <mxGeometry relative="1" as="geometry">
            <mxPoint x="700" y="2355" as="targetPoint" />
            <Array as="points">
              <mxPoint x="594" y="818.8762626262622" />
              <mxPoint x="668" y="1145" />
            </Array>
          </mxGeometry>
        </mxCell>
        <mxCell id="IElXAUZjIa1lWU1AJ27X-2" style="edgeStyle=orthogonalEdgeStyle;rounded=0;orthogonalLoop=1;jettySize=auto;html=1;entryDx=0;entryDy=0;noEdgeStyle=1;orthogonal=1;" parent="1" source="CMXorDokihR4swAWJHBv-12" target="IElXAUZjIa1lWU1AJ27X-1" edge="1">
          <mxGeometry relative="1" as="geometry">
            <Array as="points">
              <mxPoint x="592" y="823.4217171717168" />
              <mxPoint x="668" y="1225" />
            </Array>
          </mxGeometry>
        </mxCell>
        <mxCell id="CMXorDokihR4swAWJHBv-12" value="&lt;div style=&quot;font-family: &amp;quot;Cascadia Mono Seimibold&amp;quot;, &amp;quot;JetBrains Mono Semibold&amp;quot;, Consolas, monospace, &amp;quot;Courier New&amp;quot;, Consolas, &amp;quot;Courier New&amp;quot;, monospace; font-weight: normal; font-size: 18px; line-height: 24px; white-space: pre;&quot;&gt;&lt;div style=&quot;&quot;&gt;&lt;span&gt;&lt;font style=&quot;color: rgb(255, 0, 0);&quot;&gt;app_main&lt;/font&gt;&lt;/span&gt;&lt;/div&gt;&lt;/div&gt;" style="text;whiteSpace=wrap;html=1;fillColor=#dae8fc;strokeColor=#6c8ebf;align=center;verticalAlign=middle;" parent="1" vertex="1">
          <mxGeometry x="400" y="775.6944444444445" width="120" height="50" as="geometry" />
        </mxCell>
        <mxCell id="CMXorDokihR4swAWJHBv-28" value="&lt;div style=&quot;font-family: &amp;quot;Cascadia Mono Seimibold&amp;quot;, &amp;quot;JetBrains Mono Semibold&amp;quot;, Consolas, monospace, &amp;quot;Courier New&amp;quot;, Consolas, &amp;quot;Courier New&amp;quot;, monospace; font-weight: normal; font-size: 18px; line-height: 24px; white-space: pre;&quot;&gt;&lt;div style=&quot;&quot;&gt;&lt;div style=&quot;color: rgb(56, 58, 66); line-height: 24px;&quot;&gt;&lt;div style=&quot;line-height: 24px;&quot;&gt;&lt;div style=&quot;line-height: 24px;&quot;&gt;&lt;div style=&quot;line-height: 24px;&quot;&gt;&lt;span style=&quot;color: rgb(64, 120, 242);&quot;&gt;nimble_port_init&lt;/span&gt;&lt;/div&gt;&lt;/div&gt;&lt;/div&gt;&lt;/div&gt;&lt;/div&gt;&lt;/div&gt;" style="text;whiteSpace=wrap;html=1;fillColor=#dae8fc;strokeColor=#6c8ebf;align=center;verticalAlign=middle;" parent="1" vertex="1">
          <mxGeometry x="685" y="480" width="290" height="50" as="geometry" />
        </mxCell>
        <mxCell id="CMXorDokihR4swAWJHBv-30" value="&lt;div style=&quot;font-family: &amp;quot;Cascadia Mono Seimibold&amp;quot;, &amp;quot;JetBrains Mono Semibold&amp;quot;, Consolas, monospace, &amp;quot;Courier New&amp;quot;, Consolas, &amp;quot;Courier New&amp;quot;, monospace; font-weight: normal; font-size: 18px; line-height: 24px; white-space: pre;&quot;&gt;&lt;div style=&quot;&quot;&gt;&lt;div style=&quot;color: rgb(56, 58, 66); line-height: 24px;&quot;&gt;&lt;div style=&quot;line-height: 24px;&quot;&gt;&lt;div style=&quot;line-height: 24px;&quot;&gt;&lt;div style=&quot;line-height: 24px;&quot;&gt;&lt;span style=&quot;color: rgb(64, 120, 242);&quot;&gt;gatt_svr_init&lt;/span&gt;&lt;/div&gt;&lt;/div&gt;&lt;/div&gt;&lt;/div&gt;&lt;/div&gt;&lt;/div&gt;" style="text;whiteSpace=wrap;html=1;fillColor=#dae8fc;strokeColor=#6c8ebf;align=center;verticalAlign=middle;" parent="1" vertex="1">
          <mxGeometry x="685" y="720" width="290" height="50" as="geometry" />
        </mxCell>
        <mxCell id="CMXorDokihR4swAWJHBv-31" value="&lt;div style=&quot;font-family: &amp;quot;Cascadia Mono Seimibold&amp;quot;, &amp;quot;JetBrains Mono Semibold&amp;quot;, Consolas, monospace, &amp;quot;Courier New&amp;quot;, Consolas, &amp;quot;Courier New&amp;quot;, monospace; font-weight: normal; font-size: 18px; line-height: 24px; white-space: pre;&quot;&gt;&lt;div style=&quot;&quot;&gt;&lt;div style=&quot;color: rgb(56, 58, 66); line-height: 24px;&quot;&gt;&lt;div style=&quot;line-height: 24px;&quot;&gt;&lt;div style=&quot;line-height: 24px;&quot;&gt;&lt;div style=&quot;line-height: 24px;&quot;&gt;&lt;span style=&quot;color: rgb(64, 120, 242);&quot;&gt;ble_svc_gap_device_name_set&lt;/span&gt;&lt;/div&gt;&lt;/div&gt;&lt;/div&gt;&lt;/div&gt;&lt;/div&gt;&lt;/div&gt;" style="text;whiteSpace=wrap;html=1;fillColor=#dae8fc;strokeColor=#6c8ebf;align=center;verticalAlign=middle;" parent="1" vertex="1">
          <mxGeometry x="685.0000000000001" y="800" width="290" height="50" as="geometry" />
        </mxCell>
        <mxCell id="CMXorDokihR4swAWJHBv-32" value="&lt;div style=&quot;font-family: &amp;quot;Cascadia Mono Seimibold&amp;quot;, &amp;quot;JetBrains Mono Semibold&amp;quot;, Consolas, monospace, &amp;quot;Courier New&amp;quot;, Consolas, &amp;quot;Courier New&amp;quot;, monospace; font-weight: normal; font-size: 18px; line-height: 24px; white-space: pre;&quot;&gt;&lt;div style=&quot;&quot;&gt;&lt;div style=&quot;color: rgb(56, 58, 66); line-height: 24px;&quot;&gt;&lt;div style=&quot;line-height: 24px;&quot;&gt;&lt;div style=&quot;line-height: 24px;&quot;&gt;&lt;div style=&quot;line-height: 24px;&quot;&gt;&lt;span style=&quot;color: rgb(64, 120, 242);&quot;&gt;nimble_port_freertos_init&lt;/span&gt;&lt;/div&gt;&lt;/div&gt;&lt;/div&gt;&lt;/div&gt;&lt;/div&gt;&lt;/div&gt;" style="text;whiteSpace=wrap;html=1;fillColor=#dae8fc;strokeColor=#6c8ebf;align=center;verticalAlign=middle;" parent="1" vertex="1">
          <mxGeometry x="685" y="880" width="290" height="50" as="geometry" />
        </mxCell>
        <mxCell id="CMXorDokihR4swAWJHBv-36" value="&lt;div style=&quot;font-family: &amp;quot;Cascadia Mono Seimibold&amp;quot;, &amp;quot;JetBrains Mono Semibold&amp;quot;, Consolas, monospace, &amp;quot;Courier New&amp;quot;, Consolas, &amp;quot;Courier New&amp;quot;, monospace; font-weight: normal; font-size: 18px; line-height: 24px; white-space: pre;&quot;&gt;&lt;div style=&quot;&quot;&gt;&lt;div style=&quot;color: rgb(56, 58, 66); line-height: 24px;&quot;&gt;&lt;div style=&quot;line-height: 24px;&quot;&gt;&lt;div style=&quot;line-height: 24px;&quot;&gt;&lt;div style=&quot;line-height: 24px;&quot;&gt;&lt;div style=&quot;line-height: 24px;&quot;&gt;&lt;span style=&quot;color: rgb(64, 120, 242);&quot;&gt;configure_gpio_interrupt&lt;/span&gt;&lt;/div&gt;&lt;/div&gt;&lt;/div&gt;&lt;/div&gt;&lt;/div&gt;&lt;/div&gt;&lt;/div&gt;" style="text;whiteSpace=wrap;html=1;fillColor=#dae8fc;strokeColor=#6c8ebf;align=center;verticalAlign=middle;" parent="1" vertex="1">
          <mxGeometry x="685" y="640" width="290" height="50" as="geometry" />
        </mxCell>
        <mxCell id="CMXorDokihR4swAWJHBv-85" style="edgeStyle=orthogonalEdgeStyle;rounded=0;orthogonalLoop=1;jettySize=auto;html=1;entryDx=0;entryDy=0;noEdgeStyle=1;orthogonal=1;" parent="1" source="CMXorDokihR4swAWJHBv-84" target="CMXorDokihR4swAWJHBv-1" edge="1">
          <mxGeometry relative="1" as="geometry">
            <Array as="points">
              <mxPoint x="252" y="511.875" />
              <mxPoint x="328" y="241.14583333333337" />
            </Array>
          </mxGeometry>
        </mxCell>
        <mxCell id="CMXorDokihR4swAWJHBv-86" style="edgeStyle=orthogonalEdgeStyle;rounded=0;orthogonalLoop=1;jettySize=auto;html=1;entryDx=0;entryDy=0;noEdgeStyle=1;orthogonal=1;" parent="1" source="CMXorDokihR4swAWJHBv-84" target="CMXorDokihR4swAWJHBv-12" edge="1">
          <mxGeometry relative="1" as="geometry">
            <Array as="points">
              <mxPoint x="252" y="531.875" />
              <mxPoint x="328" y="800.6944444444445" />
            </Array>
          </mxGeometry>
        </mxCell>
        <mxCell id="CMXorDokihR4swAWJHBv-84" value="&lt;div style=&quot;color: rgb(56, 58, 66); font-family: &amp;quot;Cascadia Mono Seimibold&amp;quot;, &amp;quot;JetBrains Mono Semibold&amp;quot;, Consolas, monospace, &amp;quot;Courier New&amp;quot;, Consolas, &amp;quot;Courier New&amp;quot;, monospace; font-weight: normal; font-size: 18px; line-height: 24px; white-space: pre;&quot;&gt;&lt;div style=&quot;&quot;&gt;&lt;span style=&quot;color: rgb(64, 120, 242);&quot;&gt;main.c&lt;/span&gt;&lt;/div&gt;&lt;/div&gt;" style="text;whiteSpace=wrap;html=1;align=center;verticalAlign=middle;fillColor=#f5f5f5;fontColor=#333333;strokeColor=#666666;" parent="1" vertex="1">
          <mxGeometry y="496.875" width="240" height="50" as="geometry" />
        </mxCell>
        <mxCell id="CMXorDokihR4swAWJHBv-93" value="&lt;div style=&quot;color: rgb(56, 58, 66); font-family: &amp;quot;Cascadia Mono Seimibold&amp;quot;, &amp;quot;JetBrains Mono Semibold&amp;quot;, Consolas, monospace, &amp;quot;Courier New&amp;quot;, Consolas, &amp;quot;Courier New&amp;quot;, monospace; font-weight: normal; font-size: 18px; line-height: 24px; white-space: pre;&quot;&gt;&lt;div style=&quot;&quot;&gt;&lt;span style=&quot;color: rgb(64, 120, 242);&quot;&gt;command_set_game_status&lt;/span&gt;&lt;/div&gt;&lt;/div&gt;" style="text;whiteSpace=wrap;html=1;fillColor=#d5e8d4;strokeColor=#82b366;align=center;verticalAlign=middle;" parent="1" vertex="1">
          <mxGeometry x="690" y="320" width="280" height="50" as="geometry" />
        </mxCell>
        <mxCell id="CMXorDokihR4swAWJHBv-126" value="&lt;div style=&quot;font-family: &amp;quot;Cascadia Mono Seimibold&amp;quot;, &amp;quot;JetBrains Mono Semibold&amp;quot;, Consolas, monospace, &amp;quot;Courier New&amp;quot;, Consolas, &amp;quot;Courier New&amp;quot;, monospace; font-weight: normal; font-size: 18px; line-height: 24px; white-space: pre;&quot;&gt;&lt;div style=&quot;&quot;&gt;&lt;span style=&quot;&quot;&gt;led_init&lt;/span&gt;&lt;/div&gt;&lt;/div&gt;" style="text;whiteSpace=wrap;html=1;fillColor=#b1ddf0;strokeColor=#10739e;align=center;verticalAlign=middle;" parent="1" vertex="1">
          <mxGeometry x="770" y="400" width="120" height="50" as="geometry" />
        </mxCell>
        <mxCell id="CMXorDokihR4swAWJHBv-129" value="&lt;div style=&quot;color: rgb(56, 58, 66); font-family: &amp;quot;Cascadia Mono Seimibold&amp;quot;, &amp;quot;JetBrains Mono Semibold&amp;quot;, Consolas, monospace, &amp;quot;Courier New&amp;quot;, Consolas, &amp;quot;Courier New&amp;quot;, monospace; font-weight: normal; font-size: 18px; line-height: 24px; white-space: pre;&quot;&gt;&lt;div style=&quot;&quot;&gt;&lt;span style=&quot;color: rgb(64, 120, 242);&quot;&gt;battery_init&lt;/span&gt;&lt;/div&gt;&lt;/div&gt;" style="text;whiteSpace=wrap;html=1;align=center;verticalAlign=middle;fillColor=#ffe6cc;strokeColor=#d79b00;" parent="1" vertex="1">
          <mxGeometry x="717.5" y="1040" width="225" height="50" as="geometry" />
        </mxCell>
        <mxCell id="CMXorDokihR4swAWJHBv-154" value="&lt;div style=&quot;color: rgb(56, 58, 66); font-family: &amp;quot;Cascadia Mono Seimibold&amp;quot;, &amp;quot;JetBrains Mono Semibold&amp;quot;, Consolas, monospace, &amp;quot;Courier New&amp;quot;, Consolas, &amp;quot;Courier New&amp;quot;, monospace; font-weight: normal; font-size: 18px; line-height: 24px; white-space: pre;&quot;&gt;&lt;div style=&quot;&quot;&gt;&lt;span style=&quot;color: rgb(64, 120, 242);&quot;&gt;opt4060_init&lt;/span&gt;&lt;/div&gt;&lt;/div&gt;" style="text;whiteSpace=wrap;html=1;fillColor=#cdeb8b;strokeColor=#36393d;align=center;verticalAlign=middle;" parent="1" vertex="1">
          <mxGeometry x="730" y="1120" width="200" height="50" as="geometry" />
        </mxCell>
        <mxCell id="9-8ZHkOtHVzXQF-S8PlC-1" value="&lt;div style=&quot;color: rgb(56, 58, 66); font-family: &amp;quot;Cascadia Mono Seimibold&amp;quot;, &amp;quot;JetBrains Mono Semibold&amp;quot;, Consolas, monospace, &amp;quot;Courier New&amp;quot;, Consolas, &amp;quot;Courier New&amp;quot;, monospace; font-weight: normal; font-size: 18px; line-height: 24px; white-space: pre;&quot;&gt;&lt;div style=&quot;&quot;&gt;&lt;span style=&quot;color: rgb(64, 120, 242);&quot;&gt;initialize_neural_network&lt;/span&gt;&lt;/div&gt;&lt;/div&gt;" style="text;whiteSpace=wrap;html=1;fillColor=#fff2cc;strokeColor=#d6b656;align=center;verticalAlign=middle;" parent="1" vertex="1">
          <mxGeometry x="680" y="560" width="300" height="50" as="geometry" />
        </mxCell>
        <mxCell id="IElXAUZjIa1lWU1AJ27X-1" value="&lt;div style=&quot;color: rgb(56, 58, 66); font-family: &amp;quot;Cascadia Mono Seimibold&amp;quot;, &amp;quot;JetBrains Mono Semibold&amp;quot;, Consolas, monospace, &amp;quot;Courier New&amp;quot;, Consolas, &amp;quot;Courier New&amp;quot;, monospace; font-weight: normal; font-size: 18px; line-height: 24px; white-space: pre;&quot;&gt;&lt;div style=&quot;&quot;&gt;&lt;span style=&quot;color: rgb(64, 120, 242);&quot;&gt;motor_block_init&lt;/span&gt;&lt;/div&gt;&lt;/div&gt;" style="text;whiteSpace=wrap;html=1;align=center;verticalAlign=middle;fillColor=#d0cee2;strokeColor=#56517e;" parent="1" vertex="1">
          <mxGeometry x="710" y="1200" width="240" height="50" as="geometry" />
        </mxCell>
        <mxCell id="TMxWmTK1whZgZBAUiT3e-1" value="&lt;div style=&quot;color: rgb(56, 58, 66); font-family: &amp;quot;Cascadia Mono Seimibold&amp;quot;, &amp;quot;JetBrains Mono Semibold&amp;quot;, Consolas, monospace, &amp;quot;Courier New&amp;quot;, Consolas, &amp;quot;Courier New&amp;quot;, monospace; font-weight: normal; font-size: 18px; line-height: 24px; white-space: pre;&quot;&gt;&lt;div style=&quot;&quot;&gt;&lt;span style=&quot;color: rgb(64, 120, 242);&quot;&gt;controller_init&lt;/span&gt;&lt;/div&gt;&lt;/div&gt;" style="text;whiteSpace=wrap;html=1;align=center;verticalAlign=middle;fillColor=#d5e8d4;strokeColor=#82b366;" vertex="1" parent="1">
          <mxGeometry x="730" y="960" width="200" height="50" as="geometry" />
        </mxCell>
        <mxCell id="UmsV-8-wk9cn-iWYfX4L-1" style="edgeStyle=orthogonalEdgeStyle;rounded=0;orthogonalLoop=1;jettySize=auto;html=1;noEdgeStyle=1;orthogonal=1;entryDx=0;entryDy=0;" edge="1" parent="1" source="UmsV-8-wk9cn-iWYfX4L-4" target="UmsV-8-wk9cn-iWYfX4L-5">
          <mxGeometry relative="1" as="geometry">
            <Array as="points">
              <mxPoint x="134" y="1450" />
              <mxPoint x="170" y="1450" />
              <mxPoint x="560" y="1450" />
              <mxPoint x="598" y="1405" />
            </Array>
            <mxPoint x="650" y="1350" as="targetPoint" />
          </mxGeometry>
        </mxCell>
        <mxCell id="UmsV-8-wk9cn-iWYfX4L-3" style="edgeStyle=orthogonalEdgeStyle;rounded=0;orthogonalLoop=1;jettySize=auto;html=1;entryDx=0;entryDy=0;noEdgeStyle=1;orthogonal=1;" edge="1" parent="1" source="UmsV-8-wk9cn-iWYfX4L-4" target="UmsV-8-wk9cn-iWYfX4L-62">
          <mxGeometry relative="1" as="geometry">
            <Array as="points">
              <mxPoint x="132" y="1436.6666666666667" />
              <mxPoint x="208" y="1392.5" />
            </Array>
          </mxGeometry>
        </mxCell>
        <mxCell id="UmsV-8-wk9cn-iWYfX4L-4" value="&lt;span style=&quot;color: rgb(0, 0, 0); font-family: NeverMind, sans-serif, &amp;quot;Microsoft YaHei&amp;quot;, &amp;quot;PingFang SC&amp;quot;, &amp;quot;Microsoft JhengHei&amp;quot;, &amp;quot;Apple Color Emoji&amp;quot;, &amp;quot;Segoe UI Emoji&amp;quot;, &amp;quot;Segoe UI Symbol&amp;quot;, &amp;quot;Noto Color Emoji&amp;quot;; font-size: 18px; font-style: normal; font-variant-ligatures: normal; font-variant-caps: normal; font-weight: 600; letter-spacing: normal; orphans: 2; text-indent: 0px; text-transform: none; white-space: break-spaces; widows: 2; word-spacing: 0px; -webkit-text-stroke-width: 0px; text-decoration-thickness: initial; text-decoration-style: initial; text-decoration-color: initial; float: none; display: inline !important;&quot;&gt;controller.c&lt;/span&gt;" style="text;whiteSpace=wrap;html=1;align=center;verticalAlign=middle;fillColor=#d5e8d4;strokeColor=#82b366;" vertex="1" parent="1">
          <mxGeometry y="1425" width="120" height="50" as="geometry" />
        </mxCell>
        <mxCell id="UmsV-8-wk9cn-iWYfX4L-5" value="&lt;div style=&quot;color: rgb(56, 58, 66); font-family: &amp;quot;Cascadia Mono Seimibold&amp;quot;, &amp;quot;JetBrains Mono Semibold&amp;quot;, Consolas, monospace, &amp;quot;Courier New&amp;quot;, Consolas, &amp;quot;Courier New&amp;quot;, monospace; font-weight: normal; font-size: 18px; line-height: 24px; white-space: pre;&quot;&gt;&lt;div style=&quot;&quot;&gt;&lt;span style=&quot;color: rgb(64, 120, 242);&quot;&gt;set_motor_command&lt;/span&gt;&lt;/div&gt;&lt;/div&gt;" style="text;whiteSpace=wrap;html=1;align=center;verticalAlign=middle;fillColor=#d5e8d4;strokeColor=#82b366;" vertex="1" parent="1">
          <mxGeometry x="665" y="1390" width="220" height="50" as="geometry" />
        </mxCell>
        <mxCell id="UmsV-8-wk9cn-iWYfX4L-6" value="&lt;div style=&quot;color: rgb(56, 58, 66); font-family: &amp;quot;Cascadia Mono Seimibold&amp;quot;, &amp;quot;JetBrains Mono Semibold&amp;quot;, Consolas, monospace, &amp;quot;Courier New&amp;quot;, Consolas, &amp;quot;Courier New&amp;quot;, monospace; font-weight: normal; font-size: 18px; line-height: 24px; white-space: pre;&quot;&gt;&lt;div style=&quot;&quot;&gt;&lt;span style=&quot;color: rgb(64, 120, 242);&quot;&gt;controller_task&lt;/span&gt;&lt;/div&gt;&lt;/div&gt;" style="text;whiteSpace=wrap;html=1;align=center;verticalAlign=middle;fillColor=#d5e8d4;strokeColor=#82b366;" vertex="1" parent="1">
          <mxGeometry x="675" y="1630" width="200" height="50" as="geometry" />
        </mxCell>
        <mxCell id="UmsV-8-wk9cn-iWYfX4L-7" style="edgeStyle=orthogonalEdgeStyle;rounded=0;orthogonalLoop=1;jettySize=auto;html=1;noEdgeStyle=1;orthogonal=1;" edge="1" parent="1" source="UmsV-8-wk9cn-iWYfX4L-9" target="UmsV-8-wk9cn-iWYfX4L-63">
          <mxGeometry relative="1" as="geometry">
            <Array as="points">
              <mxPoint x="522" y="1571.6666666666667" />
              <mxPoint x="598" y="1495" />
            </Array>
          </mxGeometry>
        </mxCell>
        <mxCell id="UmsV-8-wk9cn-iWYfX4L-8" style="edgeStyle=orthogonalEdgeStyle;rounded=0;orthogonalLoop=1;jettySize=auto;html=1;entryDx=0;entryDy=0;noEdgeStyle=1;orthogonal=1;" edge="1" parent="1" source="UmsV-8-wk9cn-iWYfX4L-9" target="UmsV-8-wk9cn-iWYfX4L-66">
          <mxGeometry relative="1" as="geometry">
            <Array as="points">
              <mxPoint x="524" y="1585" />
              <mxPoint x="598" y="1575" />
            </Array>
          </mxGeometry>
        </mxCell>
        <mxCell id="rtL32HqUFVVKkPNNqH5C-24" style="edgeStyle=orthogonalEdgeStyle;rounded=0;orthogonalLoop=1;jettySize=auto;html=1;entryX=0;entryY=0.5;entryDx=0;entryDy=0;noEdgeStyle=1;orthogonal=1;" edge="1" parent="1" source="UmsV-8-wk9cn-iWYfX4L-9" target="UmsV-8-wk9cn-iWYfX4L-6">
          <mxGeometry relative="1" as="geometry">
            <Array as="points">
              <mxPoint x="522" y="1598.3333333333333" />
              <mxPoint x="598" y="1655" />
            </Array>
          </mxGeometry>
        </mxCell>
        <mxCell id="UmsV-8-wk9cn-iWYfX4L-9" value="&lt;div style=&quot;color: rgb(56, 58, 66); font-family: &amp;quot;Cascadia Mono Seimibold&amp;quot;, &amp;quot;JetBrains Mono Semibold&amp;quot;, Consolas, monospace, &amp;quot;Courier New&amp;quot;, Consolas, &amp;quot;Courier New&amp;quot;, monospace; font-weight: normal; font-size: 18px; line-height: 24px; white-space: pre;&quot;&gt;&lt;div style=&quot;&quot;&gt;&lt;span style=&quot;color: rgb(64, 120, 242);&quot;&gt;controller_init&lt;/span&gt;&lt;/div&gt;&lt;/div&gt;" style="text;whiteSpace=wrap;html=1;align=center;verticalAlign=middle;fillColor=#d5e8d4;strokeColor=#82b366;" vertex="1" parent="1">
          <mxGeometry x="265" y="1560" width="200" height="50" as="geometry" />
        </mxCell>
        <mxCell id="UmsV-8-wk9cn-iWYfX4L-10" style="edgeStyle=orthogonalEdgeStyle;rounded=0;orthogonalLoop=1;jettySize=auto;html=1;noEdgeStyle=1;orthogonal=1;" edge="1" parent="1" source="UmsV-8-wk9cn-iWYfX4L-11" target="UmsV-8-wk9cn-iWYfX4L-13">
          <mxGeometry relative="1" as="geometry">
            <Array as="points">
              <mxPoint x="132" y="1530" />
              <mxPoint x="208" y="1505" />
            </Array>
          </mxGeometry>
        </mxCell>
        <mxCell id="UmsV-8-wk9cn-iWYfX4L-11" value="&lt;span style=&quot;font-family: NeverMind, sans-serif, &amp;quot;Microsoft YaHei&amp;quot;, &amp;quot;PingFang SC&amp;quot;, &amp;quot;Microsoft JhengHei&amp;quot;, &amp;quot;Apple Color Emoji&amp;quot;, &amp;quot;Segoe UI Emoji&amp;quot;, &amp;quot;Segoe UI Symbol&amp;quot;, &amp;quot;Noto Color Emoji&amp;quot;; font-size: 18px; font-style: normal; font-variant-ligatures: normal; font-variant-caps: normal; font-weight: 600; letter-spacing: normal; orphans: 2; text-indent: 0px; text-transform: none; white-space: break-spaces; widows: 2; word-spacing: 0px; -webkit-text-stroke-width: 0px; text-decoration-thickness: initial; text-decoration-style: initial; text-decoration-color: initial; float: none; display: inline !important;&quot;&gt;gatt_svr.c&lt;/span&gt;" style="text;whiteSpace=wrap;html=1;fontColor=#ffffff;align=center;verticalAlign=middle;fillColor=#60a917;strokeColor=#2D7600;" vertex="1" parent="1">
          <mxGeometry x="5" y="1505" width="110" height="50" as="geometry" />
        </mxCell>
        <mxCell id="rtL32HqUFVVKkPNNqH5C-23" style="edgeStyle=orthogonalEdgeStyle;rounded=0;orthogonalLoop=1;jettySize=auto;html=1;exitX=1;exitY=0.5;exitDx=0;exitDy=0;noEdgeStyle=1;orthogonal=1;" edge="1" parent="1" source="UmsV-8-wk9cn-iWYfX4L-13" target="UmsV-8-wk9cn-iWYfX4L-5">
          <mxGeometry relative="1" as="geometry">
            <Array as="points">
              <mxPoint x="522" y="1505" />
              <mxPoint x="598" y="1425" />
            </Array>
          </mxGeometry>
        </mxCell>
        <mxCell id="UmsV-8-wk9cn-iWYfX4L-13" value="&lt;div style=&quot;color: #383a42;background-color: #fafafa;font-family: Cascadia Mono Seimibold,JetBrains Mono Semibold,Consolas, monospace, &#39;Courier New&#39;, Consolas, &#39;Courier New&#39;, monospace;font-weight: normal;font-size: 18px;line-height: 24px;white-space: pre;&quot;&gt;&lt;div&gt;&lt;span style=&quot;color: #4078f2;&quot;&gt;gatt_svr_chr_ota_data_cb&lt;/span&gt;&lt;/div&gt;&lt;/div&gt;" style="text;whiteSpace=wrap;html=1;align=center;verticalAlign=middle;fillColor=#008a00;fontColor=#ffffff;strokeColor=#005700;" vertex="1" parent="1">
          <mxGeometry x="220" y="1480" width="290" height="50" as="geometry" />
        </mxCell>
        <mxCell id="UmsV-8-wk9cn-iWYfX4L-14" value="" style="edgeStyle=orthogonalEdgeStyle;rounded=0;orthogonalLoop=1;jettySize=auto;html=1;noEdgeStyle=1;orthogonal=1;" edge="1" parent="1" source="UmsV-8-wk9cn-iWYfX4L-17" target="UmsV-8-wk9cn-iWYfX4L-25">
          <mxGeometry relative="1" as="geometry">
            <Array as="points">
              <mxPoint x="392" y="1751.6666666666667" />
              <mxPoint x="468" y="1765" />
            </Array>
          </mxGeometry>
        </mxCell>
        <mxCell id="UmsV-8-wk9cn-iWYfX4L-15" style="edgeStyle=orthogonalEdgeStyle;rounded=0;orthogonalLoop=1;jettySize=auto;html=1;entryDx=0;entryDy=0;noEdgeStyle=1;orthogonal=1;" edge="1" parent="1" source="UmsV-8-wk9cn-iWYfX4L-17" target="UmsV-8-wk9cn-iWYfX4L-36">
          <mxGeometry relative="1" as="geometry">
            <Array as="points">
              <mxPoint x="394" y="1765" />
              <mxPoint x="468" y="1845" />
            </Array>
          </mxGeometry>
        </mxCell>
        <mxCell id="UmsV-8-wk9cn-iWYfX4L-16" style="edgeStyle=orthogonalEdgeStyle;rounded=0;orthogonalLoop=1;jettySize=auto;html=1;entryDx=0;entryDy=0;noEdgeStyle=1;orthogonal=1;" edge="1" parent="1" source="UmsV-8-wk9cn-iWYfX4L-17" target="UmsV-8-wk9cn-iWYfX4L-37">
          <mxGeometry relative="1" as="geometry">
            <Array as="points">
              <mxPoint x="392" y="1778.3333333333333" />
              <mxPoint x="468" y="1925" />
            </Array>
          </mxGeometry>
        </mxCell>
        <mxCell id="UmsV-8-wk9cn-iWYfX4L-17" value="&lt;div style=&quot;font-family: &amp;quot;Cascadia Mono Seimibold&amp;quot;, &amp;quot;JetBrains Mono Semibold&amp;quot;, Consolas, monospace, &amp;quot;Courier New&amp;quot;, Consolas, &amp;quot;Courier New&amp;quot;, monospace; font-weight: normal; font-size: 18px; line-height: 24px; white-space: pre;&quot;&gt;&lt;div style=&quot;&quot;&gt;&lt;span style=&quot;&quot;&gt;led_init&lt;/span&gt;&lt;/div&gt;&lt;/div&gt;" style="text;whiteSpace=wrap;html=1;fillColor=#b1ddf0;strokeColor=#10739e;align=center;verticalAlign=middle;" vertex="1" parent="1">
          <mxGeometry x="240" y="1740" width="120" height="50" as="geometry" />
        </mxCell>
        <mxCell id="UmsV-8-wk9cn-iWYfX4L-18" value="" style="edgeStyle=orthogonalEdgeStyle;rounded=0;orthogonalLoop=1;jettySize=auto;html=1;noEdgeStyle=1;orthogonal=1;" edge="1" parent="1" source="UmsV-8-wk9cn-iWYfX4L-24" target="UmsV-8-wk9cn-iWYfX4L-17">
          <mxGeometry relative="1" as="geometry">
            <Array as="points">
              <mxPoint x="132" y="1948.3333333333333" />
              <mxPoint x="208" y="1765" />
            </Array>
          </mxGeometry>
        </mxCell>
        <mxCell id="UmsV-8-wk9cn-iWYfX4L-19" style="edgeStyle=orthogonalEdgeStyle;rounded=0;orthogonalLoop=1;jettySize=auto;html=1;entryDx=0;entryDy=0;noEdgeStyle=1;orthogonal=1;" edge="1" parent="1" source="UmsV-8-wk9cn-iWYfX4L-24" target="UmsV-8-wk9cn-iWYfX4L-26">
          <mxGeometry relative="1" as="geometry">
            <Array as="points">
              <mxPoint x="134" y="1955" />
              <mxPoint x="208" y="1845" />
            </Array>
          </mxGeometry>
        </mxCell>
        <mxCell id="UmsV-8-wk9cn-iWYfX4L-20" style="edgeStyle=orthogonalEdgeStyle;rounded=0;orthogonalLoop=1;jettySize=auto;html=1;entryDx=0;entryDy=0;noEdgeStyle=1;orthogonal=1;" edge="1" parent="1" source="UmsV-8-wk9cn-iWYfX4L-24" target="UmsV-8-wk9cn-iWYfX4L-29">
          <mxGeometry relative="1" as="geometry">
            <Array as="points">
              <mxPoint x="136" y="1961.6666666666667" />
              <mxPoint x="208" y="1925" />
            </Array>
          </mxGeometry>
        </mxCell>
        <mxCell id="UmsV-8-wk9cn-iWYfX4L-21" style="edgeStyle=orthogonalEdgeStyle;rounded=0;orthogonalLoop=1;jettySize=auto;html=1;entryDx=0;entryDy=0;noEdgeStyle=1;orthogonal=1;" edge="1" parent="1" source="UmsV-8-wk9cn-iWYfX4L-24" target="UmsV-8-wk9cn-iWYfX4L-31">
          <mxGeometry relative="1" as="geometry">
            <Array as="points">
              <mxPoint x="136" y="1968.3333333333335" />
              <mxPoint x="208" y="2005" />
            </Array>
          </mxGeometry>
        </mxCell>
        <mxCell id="UmsV-8-wk9cn-iWYfX4L-22" style="edgeStyle=orthogonalEdgeStyle;rounded=0;orthogonalLoop=1;jettySize=auto;html=1;entryDx=0;entryDy=0;noEdgeStyle=1;orthogonal=1;" edge="1" parent="1" source="UmsV-8-wk9cn-iWYfX4L-24" target="UmsV-8-wk9cn-iWYfX4L-33">
          <mxGeometry relative="1" as="geometry">
            <Array as="points">
              <mxPoint x="134" y="1975.0000000000002" />
              <mxPoint x="208" y="2085" />
            </Array>
          </mxGeometry>
        </mxCell>
        <mxCell id="UmsV-8-wk9cn-iWYfX4L-23" style="edgeStyle=orthogonalEdgeStyle;rounded=0;orthogonalLoop=1;jettySize=auto;html=1;noEdgeStyle=1;orthogonal=1;" edge="1" parent="1" source="UmsV-8-wk9cn-iWYfX4L-24" target="UmsV-8-wk9cn-iWYfX4L-35">
          <mxGeometry relative="1" as="geometry">
            <Array as="points">
              <mxPoint x="132" y="1981.666666666667" />
              <mxPoint x="208" y="2165" />
            </Array>
          </mxGeometry>
        </mxCell>
        <mxCell id="UmsV-8-wk9cn-iWYfX4L-24" value="&lt;div style=&quot;font-family: &amp;quot;Cascadia Mono Seimibold&amp;quot;, &amp;quot;JetBrains Mono Semibold&amp;quot;, Consolas, monospace, &amp;quot;Courier New&amp;quot;, Consolas, &amp;quot;Courier New&amp;quot;, monospace; font-weight: normal; font-size: 18px; line-height: 24px; white-space: pre;&quot;&gt;&lt;div style=&quot;&quot;&gt;&lt;span style=&quot;&quot;&gt;led.c&lt;/span&gt;&lt;/div&gt;&lt;/div&gt;" style="text;whiteSpace=wrap;html=1;fillColor=#b1ddf0;strokeColor=#10739e;align=center;verticalAlign=middle;" vertex="1" parent="1">
          <mxGeometry y="1940" width="120" height="50" as="geometry" />
        </mxCell>
        <mxCell id="UmsV-8-wk9cn-iWYfX4L-25" value="&lt;div style=&quot;font-family: &amp;quot;Cascadia Mono Seimibold&amp;quot;, &amp;quot;JetBrains Mono Semibold&amp;quot;, Consolas, monospace, &amp;quot;Courier New&amp;quot;, Consolas, &amp;quot;Courier New&amp;quot;, monospace; font-weight: normal; font-size: 18px; line-height: 24px; white-space: pre;&quot;&gt;&lt;div style=&quot;&quot;&gt;&lt;div style=&quot;line-height: 24px;&quot;&gt;&lt;span style=&quot;&quot;&gt;led_set_flash_period&lt;/span&gt;&lt;/div&gt;&lt;/div&gt;&lt;/div&gt;" style="text;whiteSpace=wrap;html=1;fillColor=#b1ddf0;strokeColor=#10739e;align=center;verticalAlign=middle;fontColor=#000000;" vertex="1" parent="1">
          <mxGeometry x="480" y="1740" width="240" height="50" as="geometry" />
        </mxCell>
        <mxCell id="UmsV-8-wk9cn-iWYfX4L-26" value="&lt;div style=&quot;font-family: &amp;quot;Cascadia Mono Seimibold&amp;quot;, &amp;quot;JetBrains Mono Semibold&amp;quot;, Consolas, monospace, &amp;quot;Courier New&amp;quot;, Consolas, &amp;quot;Courier New&amp;quot;, monospace; font-weight: normal; font-size: 18px; line-height: 24px; white-space: pre;&quot;&gt;&lt;div style=&quot;&quot;&gt;&lt;span style=&quot;&quot;&gt;set_led&lt;/span&gt;&lt;/div&gt;&lt;/div&gt;" style="text;whiteSpace=wrap;html=1;fillColor=#b1ddf0;strokeColor=#10739e;align=center;verticalAlign=middle;" vertex="1" parent="1">
          <mxGeometry x="240" y="1820" width="120" height="50" as="geometry" />
        </mxCell>
        <mxCell id="UmsV-8-wk9cn-iWYfX4L-27" value="&lt;div style=&quot;font-family: &amp;quot;Cascadia Mono Seimibold&amp;quot;, &amp;quot;JetBrains Mono Semibold&amp;quot;, Consolas, monospace, &amp;quot;Courier New&amp;quot;, Consolas, &amp;quot;Courier New&amp;quot;, monospace; font-weight: normal; font-size: 18px; line-height: 24px; white-space: pre;&quot;&gt;&lt;div style=&quot;&quot;&gt;&lt;span style=&quot;&quot;&gt;led_set_flash_mode&lt;/span&gt;&lt;/div&gt;&lt;/div&gt;" style="text;whiteSpace=wrap;html=1;fillColor=#b1ddf0;strokeColor=#10739e;align=center;verticalAlign=middle;" vertex="1" parent="1">
          <mxGeometry x="495" y="2000" width="210" height="90" as="geometry" />
        </mxCell>
        <mxCell id="UmsV-8-wk9cn-iWYfX4L-28" style="edgeStyle=orthogonalEdgeStyle;rounded=0;orthogonalLoop=1;jettySize=auto;html=1;exitDx=0;exitDy=0;entryDx=0;entryDy=0;noEdgeStyle=1;orthogonal=1;" edge="1" parent="1" source="UmsV-8-wk9cn-iWYfX4L-29" target="UmsV-8-wk9cn-iWYfX4L-27">
          <mxGeometry relative="1" as="geometry">
            <Array as="points">
              <mxPoint x="392" y="1925" />
              <mxPoint x="468" y="2015" />
            </Array>
          </mxGeometry>
        </mxCell>
        <mxCell id="UmsV-8-wk9cn-iWYfX4L-29" value="&lt;div style=&quot;font-family: &amp;quot;Cascadia Mono Seimibold&amp;quot;, &amp;quot;JetBrains Mono Semibold&amp;quot;, Consolas, monospace, &amp;quot;Courier New&amp;quot;, Consolas, &amp;quot;Courier New&amp;quot;, monospace; font-weight: normal; font-size: 18px; line-height: 24px; white-space: pre;&quot;&gt;&lt;div style=&quot;&quot;&gt;&lt;span style=&quot;&quot;&gt;led_all_on&lt;/span&gt;&lt;/div&gt;&lt;/div&gt;" style="text;whiteSpace=wrap;html=1;fillColor=#b1ddf0;strokeColor=#10739e;align=center;verticalAlign=middle;" vertex="1" parent="1">
          <mxGeometry x="240" y="1900" width="120" height="50" as="geometry" />
        </mxCell>
        <mxCell id="UmsV-8-wk9cn-iWYfX4L-30" style="edgeStyle=orthogonalEdgeStyle;rounded=0;orthogonalLoop=1;jettySize=auto;html=1;entryX=0;entryY=0.5;entryDx=0;entryDy=0;noEdgeStyle=1;orthogonal=1;" edge="1" parent="1" source="UmsV-8-wk9cn-iWYfX4L-31" target="UmsV-8-wk9cn-iWYfX4L-27">
          <mxGeometry relative="1" as="geometry">
            <Array as="points">
              <mxPoint x="392" y="2005" />
              <mxPoint x="466" y="2035" />
            </Array>
          </mxGeometry>
        </mxCell>
        <mxCell id="UmsV-8-wk9cn-iWYfX4L-31" value="&lt;div style=&quot;font-family: &amp;quot;Cascadia Mono Seimibold&amp;quot;, &amp;quot;JetBrains Mono Semibold&amp;quot;, Consolas, monospace, &amp;quot;Courier New&amp;quot;, Consolas, &amp;quot;Courier New&amp;quot;, monospace; font-weight: normal; font-size: 18px; line-height: 24px; white-space: pre;&quot;&gt;&lt;div style=&quot;&quot;&gt;&lt;span style=&quot;&quot;&gt;led_all_off&lt;/span&gt;&lt;/div&gt;&lt;/div&gt;" style="text;whiteSpace=wrap;html=1;fillColor=#b1ddf0;strokeColor=#10739e;align=center;verticalAlign=middle;" vertex="1" parent="1">
          <mxGeometry x="240" y="1980" width="120" height="50" as="geometry" />
        </mxCell>
        <mxCell id="UmsV-8-wk9cn-iWYfX4L-32" style="edgeStyle=orthogonalEdgeStyle;rounded=0;orthogonalLoop=1;jettySize=auto;html=1;noEdgeStyle=1;orthogonal=1;" edge="1" parent="1" source="UmsV-8-wk9cn-iWYfX4L-33" target="UmsV-8-wk9cn-iWYfX4L-27">
          <mxGeometry relative="1" as="geometry">
            <Array as="points">
              <mxPoint x="392" y="2085" />
              <mxPoint x="466" y="2055" />
            </Array>
          </mxGeometry>
        </mxCell>
        <mxCell id="UmsV-8-wk9cn-iWYfX4L-33" value="&lt;div style=&quot;font-family: &amp;quot;Cascadia Mono Seimibold&amp;quot;, &amp;quot;JetBrains Mono Semibold&amp;quot;, Consolas, monospace, &amp;quot;Courier New&amp;quot;, Consolas, &amp;quot;Courier New&amp;quot;, monospace; font-weight: normal; font-size: 18px; line-height: 24px; white-space: pre;&quot;&gt;&lt;div style=&quot;&quot;&gt;&lt;span style=&quot;&quot;&gt;led_front_on&lt;/span&gt;&lt;/div&gt;&lt;/div&gt;" style="text;whiteSpace=wrap;html=1;fillColor=#b1ddf0;strokeColor=#10739e;align=center;verticalAlign=middle;" vertex="1" parent="1">
          <mxGeometry x="220" y="2060" width="160" height="50" as="geometry" />
        </mxCell>
        <mxCell id="UmsV-8-wk9cn-iWYfX4L-34" style="edgeStyle=orthogonalEdgeStyle;rounded=0;orthogonalLoop=1;jettySize=auto;html=1;noEdgeStyle=1;orthogonal=1;" edge="1" parent="1" source="UmsV-8-wk9cn-iWYfX4L-35" target="UmsV-8-wk9cn-iWYfX4L-27">
          <mxGeometry relative="1" as="geometry">
            <Array as="points">
              <mxPoint x="392" y="2165" />
              <mxPoint x="468" y="2075" />
            </Array>
          </mxGeometry>
        </mxCell>
        <mxCell id="UmsV-8-wk9cn-iWYfX4L-35" value="&lt;div style=&quot;font-family: &amp;quot;Cascadia Mono Seimibold&amp;quot;, &amp;quot;JetBrains Mono Semibold&amp;quot;, Consolas, monospace, &amp;quot;Courier New&amp;quot;, Consolas, &amp;quot;Courier New&amp;quot;, monospace; font-weight: normal; font-size: 18px; line-height: 24px; white-space: pre;&quot;&gt;&lt;div style=&quot;&quot;&gt;&lt;span style=&quot;&quot;&gt;led_back_on&lt;/span&gt;&lt;/div&gt;&lt;/div&gt;" style="text;whiteSpace=wrap;html=1;fillColor=#b1ddf0;strokeColor=#10739e;align=center;verticalAlign=middle;" vertex="1" parent="1">
          <mxGeometry x="220" y="2140" width="160" height="50" as="geometry" />
        </mxCell>
        <mxCell id="UmsV-8-wk9cn-iWYfX4L-36" value="&lt;div style=&quot;font-family: &amp;quot;Cascadia Mono Seimibold&amp;quot;, &amp;quot;JetBrains Mono Semibold&amp;quot;, Consolas, monospace, &amp;quot;Courier New&amp;quot;, Consolas, &amp;quot;Courier New&amp;quot;, monospace; font-weight: normal; font-size: 18px; line-height: 24px; white-space: pre;&quot;&gt;&lt;div style=&quot;&quot;&gt;&lt;span style=&quot;&quot;&gt;config_led&lt;/span&gt;&lt;/div&gt;&lt;/div&gt;" style="text;whiteSpace=wrap;html=1;fillColor=#b1ddf0;strokeColor=#10739e;align=center;verticalAlign=middle;" vertex="1" parent="1">
          <mxGeometry x="520" y="1820" width="160" height="50" as="geometry" />
        </mxCell>
        <mxCell id="UmsV-8-wk9cn-iWYfX4L-37" value="&lt;div style=&quot;font-family: &amp;quot;Cascadia Mono Seimibold&amp;quot;, &amp;quot;JetBrains Mono Semibold&amp;quot;, Consolas, monospace, &amp;quot;Courier New&amp;quot;, Consolas, &amp;quot;Courier New&amp;quot;, monospace; font-weight: normal; font-size: 18px; line-height: 24px; white-space: pre;&quot;&gt;&lt;div style=&quot;&quot;&gt;&lt;span style=&quot;&quot;&gt;led_task&lt;/span&gt;&lt;/div&gt;&lt;/div&gt;" style="text;whiteSpace=wrap;html=1;fillColor=#b1ddf0;strokeColor=#10739e;align=center;verticalAlign=middle;" vertex="1" parent="1">
          <mxGeometry x="520" y="1900" width="160" height="50" as="geometry" />
        </mxCell>
        <mxCell id="UmsV-8-wk9cn-iWYfX4L-38" value="&lt;div style=&quot;color: rgb(56, 58, 66); font-family: &amp;quot;Cascadia Mono Seimibold&amp;quot;, &amp;quot;JetBrains Mono Semibold&amp;quot;, Consolas, monospace, &amp;quot;Courier New&amp;quot;, Consolas, &amp;quot;Courier New&amp;quot;, monospace; font-weight: normal; font-size: 18px; line-height: 24px; white-space: pre;&quot;&gt;&lt;div style=&quot;&quot;&gt;&lt;span style=&quot;color: rgb(64, 120, 242);&quot;&gt;configure_motor_pwm&lt;/span&gt;&lt;/div&gt;&lt;/div&gt;" style="text;whiteSpace=wrap;html=1;align=center;verticalAlign=middle;fillColor=#d0cee2;strokeColor=#56517e;" vertex="1" parent="1">
          <mxGeometry x="580" y="2280" width="240" height="50" as="geometry" />
        </mxCell>
        <mxCell id="UmsV-8-wk9cn-iWYfX4L-39" style="edgeStyle=orthogonalEdgeStyle;rounded=0;orthogonalLoop=1;jettySize=auto;html=1;entryDx=0;entryDy=0;noEdgeStyle=1;orthogonal=1;" edge="1" parent="1" source="UmsV-8-wk9cn-iWYfX4L-41" target="UmsV-8-wk9cn-iWYfX4L-44">
          <mxGeometry relative="1" as="geometry">
            <Array as="points">
              <mxPoint x="152" y="2320" />
              <mxPoint x="228" y="2290" />
            </Array>
          </mxGeometry>
        </mxCell>
        <mxCell id="UmsV-8-wk9cn-iWYfX4L-40" style="edgeStyle=orthogonalEdgeStyle;rounded=0;orthogonalLoop=1;jettySize=auto;html=1;entryDx=0;entryDy=0;noEdgeStyle=1;orthogonal=1;" edge="1" parent="1" source="UmsV-8-wk9cn-iWYfX4L-41" target="UmsV-8-wk9cn-iWYfX4L-60">
          <mxGeometry relative="1" as="geometry">
            <Array as="points">
              <mxPoint x="152" y="2340" />
              <mxPoint x="228" y="2370" />
            </Array>
          </mxGeometry>
        </mxCell>
        <mxCell id="UmsV-8-wk9cn-iWYfX4L-41" value="&lt;div style=&quot;color: rgb(56, 58, 66); font-family: &amp;quot;Cascadia Mono Seimibold&amp;quot;, &amp;quot;JetBrains Mono Semibold&amp;quot;, Consolas, monospace, &amp;quot;Courier New&amp;quot;, Consolas, &amp;quot;Courier New&amp;quot;, monospace; font-weight: normal; font-size: 18px; line-height: 24px; white-space: pre;&quot;&gt;&lt;div style=&quot;&quot;&gt;&lt;span style=&quot;color: rgb(64, 120, 242);&quot;&gt;motor.c&lt;/span&gt;&lt;/div&gt;&lt;/div&gt;" style="text;whiteSpace=wrap;html=1;align=center;verticalAlign=middle;fillColor=#d0cee2;strokeColor=#56517e;" vertex="1" parent="1">
          <mxGeometry y="2305" width="140" height="50" as="geometry" />
        </mxCell>
        <mxCell id="UmsV-8-wk9cn-iWYfX4L-42" value="&lt;div style=&quot;color: rgb(56, 58, 66); font-family: &amp;quot;Cascadia Mono Seimibold&amp;quot;, &amp;quot;JetBrains Mono Semibold&amp;quot;, Consolas, monospace, &amp;quot;Courier New&amp;quot;, Consolas, &amp;quot;Courier New&amp;quot;, monospace; font-weight: normal; font-size: 18px; line-height: 24px; white-space: pre;&quot;&gt;&lt;div style=&quot;&quot;&gt;&lt;span style=&quot;color: rgb(64, 120, 242);&quot;&gt;set_motor_speed&lt;/span&gt;&lt;/div&gt;&lt;/div&gt;" style="text;whiteSpace=wrap;html=1;align=center;verticalAlign=middle;fillColor=#d0cee2;strokeColor=#56517e;" vertex="1" parent="1">
          <mxGeometry x="920" y="2292.5" width="240" height="50" as="geometry" />
        </mxCell>
        <mxCell id="UmsV-8-wk9cn-iWYfX4L-43" style="edgeStyle=orthogonalEdgeStyle;rounded=0;orthogonalLoop=1;jettySize=auto;html=1;entryDx=0;entryDy=0;noEdgeStyle=1;orthogonal=1;" edge="1" parent="1" source="UmsV-8-wk9cn-iWYfX4L-44" target="UmsV-8-wk9cn-iWYfX4L-42">
          <mxGeometry relative="1" as="geometry">
            <Array as="points">
              <mxPoint x="492" y="2290" />
              <mxPoint x="530" y="2250" />
              <mxPoint x="870" y="2250" />
              <mxPoint x="908" y="2307.5" />
            </Array>
          </mxGeometry>
        </mxCell>
        <mxCell id="UmsV-8-wk9cn-iWYfX4L-44" value="&lt;div style=&quot;color: rgb(56, 58, 66); font-family: &amp;quot;Cascadia Mono Seimibold&amp;quot;, &amp;quot;JetBrains Mono Semibold&amp;quot;, Consolas, monospace, &amp;quot;Courier New&amp;quot;, Consolas, &amp;quot;Courier New&amp;quot;, monospace; font-weight: normal; font-size: 18px; line-height: 24px; white-space: pre;&quot;&gt;&lt;div style=&quot;&quot;&gt;&lt;span style=&quot;color: rgb(64, 120, 242);&quot;&gt;soft_start_motor&lt;/span&gt;&lt;/div&gt;&lt;/div&gt;" style="text;whiteSpace=wrap;html=1;align=center;verticalAlign=middle;fillColor=#d0cee2;strokeColor=#56517e;" vertex="1" parent="1">
          <mxGeometry x="240" y="2265" width="240" height="50" as="geometry" />
        </mxCell>
        <mxCell id="UmsV-8-wk9cn-iWYfX4L-45" style="edgeStyle=orthogonalEdgeStyle;rounded=0;orthogonalLoop=1;jettySize=auto;html=1;noEdgeStyle=1;orthogonal=1;" edge="1" parent="1" source="UmsV-8-wk9cn-iWYfX4L-46" target="UmsV-8-wk9cn-iWYfX4L-42">
          <mxGeometry relative="1" as="geometry">
            <Array as="points">
              <mxPoint x="832" y="2385" />
              <mxPoint x="908" y="2327.5" />
            </Array>
          </mxGeometry>
        </mxCell>
        <mxCell id="UmsV-8-wk9cn-iWYfX4L-46" value="&lt;div style=&quot;color: rgb(56, 58, 66); font-family: &amp;quot;Cascadia Mono Seimibold&amp;quot;, &amp;quot;JetBrains Mono Semibold&amp;quot;, Consolas, monospace, &amp;quot;Courier New&amp;quot;, Consolas, &amp;quot;Courier New&amp;quot;, monospace; font-weight: normal; font-size: 18px; line-height: 24px; white-space: pre;&quot;&gt;&lt;div style=&quot;&quot;&gt;&lt;span style=&quot;color: rgb(64, 120, 242);&quot;&gt;motor_task&lt;/span&gt;&lt;/div&gt;&lt;/div&gt;" style="text;whiteSpace=wrap;html=1;align=center;verticalAlign=middle;fillColor=#d0cee2;strokeColor=#56517e;" vertex="1" parent="1">
          <mxGeometry x="580" y="2360" width="240" height="50" as="geometry" />
        </mxCell>
        <mxCell id="UmsV-8-wk9cn-iWYfX4L-47" value="&lt;div style=&quot;color: rgb(56, 58, 66); font-family: &amp;quot;Cascadia Mono Seimibold&amp;quot;, &amp;quot;JetBrains Mono Semibold&amp;quot;, Consolas, monospace, &amp;quot;Courier New&amp;quot;, Consolas, &amp;quot;Courier New&amp;quot;, monospace; font-weight: normal; font-size: 18px; line-height: 24px; white-space: pre;&quot;&gt;&lt;div style=&quot;&quot;&gt;&lt;span style=&quot;color: rgb(64, 120, 242);&quot;&gt;i2c_master_init&lt;/span&gt;&lt;/div&gt;&lt;/div&gt;" style="text;whiteSpace=wrap;html=1;fillColor=#cdeb8b;strokeColor=#36393d;align=center;verticalAlign=middle;" vertex="1" parent="1">
          <mxGeometry x="630" y="2470" width="200" height="50" as="geometry" />
        </mxCell>
        <mxCell id="UmsV-8-wk9cn-iWYfX4L-48" style="edgeStyle=orthogonalEdgeStyle;rounded=0;orthogonalLoop=1;jettySize=auto;html=1;entryDx=0;entryDy=0;noEdgeStyle=1;orthogonal=1;" edge="1" parent="1" source="UmsV-8-wk9cn-iWYfX4L-52" target="UmsV-8-wk9cn-iWYfX4L-54">
          <mxGeometry relative="1" as="geometry">
            <Array as="points">
              <mxPoint x="212" y="2600" />
              <mxPoint x="288" y="2495" />
            </Array>
          </mxGeometry>
        </mxCell>
        <mxCell id="UmsV-8-wk9cn-iWYfX4L-49" style="edgeStyle=orthogonalEdgeStyle;rounded=0;orthogonalLoop=1;jettySize=auto;html=1;entryDx=0;entryDy=0;noEdgeStyle=1;orthogonal=1;" edge="1" parent="1" source="UmsV-8-wk9cn-iWYfX4L-52" target="UmsV-8-wk9cn-iWYfX4L-55">
          <mxGeometry relative="1" as="geometry">
            <Array as="points">
              <mxPoint x="214" y="2610" />
              <mxPoint x="288" y="2575" />
            </Array>
          </mxGeometry>
        </mxCell>
        <mxCell id="UmsV-8-wk9cn-iWYfX4L-50" style="edgeStyle=orthogonalEdgeStyle;rounded=0;orthogonalLoop=1;jettySize=auto;html=1;entryDx=0;entryDy=0;noEdgeStyle=1;orthogonal=1;" edge="1" parent="1" source="UmsV-8-wk9cn-iWYfX4L-52" target="UmsV-8-wk9cn-iWYfX4L-56">
          <mxGeometry relative="1" as="geometry">
            <Array as="points">
              <mxPoint x="214" y="2620" />
              <mxPoint x="288" y="2655" />
            </Array>
          </mxGeometry>
        </mxCell>
        <mxCell id="UmsV-8-wk9cn-iWYfX4L-51" style="edgeStyle=orthogonalEdgeStyle;rounded=0;orthogonalLoop=1;jettySize=auto;html=1;exitDx=0;exitDy=0;entryDx=0;entryDy=0;noEdgeStyle=1;orthogonal=1;" edge="1" parent="1" source="UmsV-8-wk9cn-iWYfX4L-52" target="UmsV-8-wk9cn-iWYfX4L-57">
          <mxGeometry relative="1" as="geometry">
            <Array as="points">
              <mxPoint x="212" y="2630" />
              <mxPoint x="288" y="2735" />
            </Array>
          </mxGeometry>
        </mxCell>
        <mxCell id="UmsV-8-wk9cn-iWYfX4L-52" value="&lt;div style=&quot;color: rgb(56, 58, 66); font-family: &amp;quot;Cascadia Mono Seimibold&amp;quot;, &amp;quot;JetBrains Mono Semibold&amp;quot;, Consolas, monospace, &amp;quot;Courier New&amp;quot;, Consolas, &amp;quot;Courier New&amp;quot;, monospace; font-weight: normal; font-size: 18px; line-height: 24px; white-space: pre;&quot;&gt;&lt;div style=&quot;&quot;&gt;&lt;span style=&quot;color: rgb(64, 120, 242);&quot;&gt;opt40660.c&lt;/span&gt;&lt;/div&gt;&lt;/div&gt;" style="text;whiteSpace=wrap;html=1;fillColor=#cdeb8b;strokeColor=#36393d;align=center;verticalAlign=middle;" vertex="1" parent="1">
          <mxGeometry y="2590" width="200" height="50" as="geometry" />
        </mxCell>
        <mxCell id="UmsV-8-wk9cn-iWYfX4L-53" style="edgeStyle=orthogonalEdgeStyle;rounded=0;orthogonalLoop=1;jettySize=auto;html=1;noEdgeStyle=1;orthogonal=1;" edge="1" parent="1" source="UmsV-8-wk9cn-iWYfX4L-54" target="UmsV-8-wk9cn-iWYfX4L-47">
          <mxGeometry relative="1" as="geometry">
            <Array as="points">
              <mxPoint x="542" y="2495" />
              <mxPoint x="618" y="2495" />
            </Array>
          </mxGeometry>
        </mxCell>
        <mxCell id="UmsV-8-wk9cn-iWYfX4L-54" value="&lt;div style=&quot;color: rgb(56, 58, 66); font-family: &amp;quot;Cascadia Mono Seimibold&amp;quot;, &amp;quot;JetBrains Mono Semibold&amp;quot;, Consolas, monospace, &amp;quot;Courier New&amp;quot;, Consolas, &amp;quot;Courier New&amp;quot;, monospace; font-weight: normal; font-size: 18px; line-height: 24px; white-space: pre;&quot;&gt;&lt;div style=&quot;&quot;&gt;&lt;span style=&quot;color: rgb(64, 120, 242);&quot;&gt;opt4060_init&lt;/span&gt;&lt;/div&gt;&lt;/div&gt;" style="text;whiteSpace=wrap;html=1;fillColor=#cdeb8b;strokeColor=#36393d;align=center;verticalAlign=middle;" vertex="1" parent="1">
          <mxGeometry x="315" y="2470" width="200" height="50" as="geometry" />
        </mxCell>
        <mxCell id="UmsV-8-wk9cn-iWYfX4L-55" value="&lt;div style=&quot;color: rgb(56, 58, 66); font-family: &amp;quot;Cascadia Mono Seimibold&amp;quot;, &amp;quot;JetBrains Mono Semibold&amp;quot;, Consolas, monospace, &amp;quot;Courier New&amp;quot;, Consolas, &amp;quot;Courier New&amp;quot;, monospace; font-weight: normal; font-size: 18px; line-height: 24px; white-space: pre;&quot;&gt;&lt;div style=&quot;&quot;&gt;&lt;span style=&quot;color: rgb(64, 120, 242);&quot;&gt;determineColor&lt;/span&gt;&lt;/div&gt;&lt;/div&gt;" style="text;whiteSpace=wrap;html=1;fillColor=#cdeb8b;strokeColor=#36393d;align=center;verticalAlign=middle;" vertex="1" parent="1">
          <mxGeometry x="315" y="2550" width="200" height="50" as="geometry" />
        </mxCell>
        <mxCell id="UmsV-8-wk9cn-iWYfX4L-56" value="&lt;div style=&quot;color: rgb(56, 58, 66); font-family: &amp;quot;Cascadia Mono Seimibold&amp;quot;, &amp;quot;JetBrains Mono Semibold&amp;quot;, Consolas, monospace, &amp;quot;Courier New&amp;quot;, Consolas, &amp;quot;Courier New&amp;quot;, monospace; font-weight: normal; font-size: 18px; line-height: 24px; white-space: pre;&quot;&gt;&lt;div style=&quot;&quot;&gt;&lt;span style=&quot;color: rgb(64, 120, 242);&quot;&gt;classify_color&lt;/span&gt;&lt;/div&gt;&lt;/div&gt;" style="text;whiteSpace=wrap;html=1;fillColor=#cdeb8b;strokeColor=#36393d;align=center;verticalAlign=middle;" vertex="1" parent="1">
          <mxGeometry x="315" y="2630" width="200" height="50" as="geometry" />
        </mxCell>
        <mxCell id="UmsV-8-wk9cn-iWYfX4L-57" value="&lt;div style=&quot;color: rgb(56, 58, 66); font-family: &amp;quot;Cascadia Mono Seimibold&amp;quot;, &amp;quot;JetBrains Mono Semibold&amp;quot;, Consolas, monospace, &amp;quot;Courier New&amp;quot;, Consolas, &amp;quot;Courier New&amp;quot;, monospace; font-weight: normal; font-size: 18px; line-height: 24px; white-space: pre;&quot;&gt;&lt;div style=&quot;&quot;&gt;&lt;span style=&quot;color: rgb(64, 120, 242);&quot;&gt;opt4060_read_color&lt;/span&gt;&lt;/div&gt;&lt;/div&gt;" style="text;whiteSpace=wrap;html=1;fillColor=#cdeb8b;strokeColor=#36393d;align=center;verticalAlign=middle;" vertex="1" parent="1">
          <mxGeometry x="300" y="2710" width="230" height="50" as="geometry" />
        </mxCell>
        <mxCell id="UmsV-8-wk9cn-iWYfX4L-58" style="edgeStyle=orthogonalEdgeStyle;rounded=0;orthogonalLoop=1;jettySize=auto;html=1;noEdgeStyle=1;orthogonal=1;" edge="1" parent="1" source="UmsV-8-wk9cn-iWYfX4L-60" target="UmsV-8-wk9cn-iWYfX4L-38">
          <mxGeometry relative="1" as="geometry">
            <Array as="points">
              <mxPoint x="492" y="2360" />
              <mxPoint x="568" y="2305" />
            </Array>
          </mxGeometry>
        </mxCell>
        <mxCell id="UmsV-8-wk9cn-iWYfX4L-59" style="edgeStyle=orthogonalEdgeStyle;rounded=0;orthogonalLoop=1;jettySize=auto;html=1;entryDx=0;entryDy=0;noEdgeStyle=1;orthogonal=1;" edge="1" parent="1" source="UmsV-8-wk9cn-iWYfX4L-60" target="UmsV-8-wk9cn-iWYfX4L-46">
          <mxGeometry relative="1" as="geometry">
            <Array as="points">
              <mxPoint x="492" y="2380" />
              <mxPoint x="568" y="2385" />
            </Array>
          </mxGeometry>
        </mxCell>
        <mxCell id="UmsV-8-wk9cn-iWYfX4L-60" value="&lt;div style=&quot;color: rgb(56, 58, 66); font-family: &amp;quot;Cascadia Mono Seimibold&amp;quot;, &amp;quot;JetBrains Mono Semibold&amp;quot;, Consolas, monospace, &amp;quot;Courier New&amp;quot;, Consolas, &amp;quot;Courier New&amp;quot;, monospace; font-weight: normal; font-size: 18px; line-height: 24px; white-space: pre;&quot;&gt;&lt;div style=&quot;&quot;&gt;&lt;span style=&quot;color: rgb(64, 120, 242);&quot;&gt;motor_block_init&lt;/span&gt;&lt;/div&gt;&lt;/div&gt;" style="text;whiteSpace=wrap;html=1;align=center;verticalAlign=middle;fillColor=#d0cee2;strokeColor=#56517e;" vertex="1" parent="1">
          <mxGeometry x="240" y="2345" width="240" height="50" as="geometry" />
        </mxCell>
        <mxCell id="UmsV-8-wk9cn-iWYfX4L-61" value="" style="edgeStyle=orthogonalEdgeStyle;rounded=0;orthogonalLoop=1;jettySize=auto;html=1;noEdgeStyle=1;orthogonal=1;" edge="1" parent="1" source="UmsV-8-wk9cn-iWYfX4L-62" target="UmsV-8-wk9cn-iWYfX4L-64">
          <mxGeometry relative="1" as="geometry">
            <Array as="points">
              <mxPoint x="522" y="1392.5" />
              <mxPoint x="598" y="1335" />
            </Array>
          </mxGeometry>
        </mxCell>
        <mxCell id="UmsV-8-wk9cn-iWYfX4L-62" value="&lt;div style=&quot;color: rgb(56, 58, 66); font-family: &amp;quot;Cascadia Mono Seimibold&amp;quot;, &amp;quot;JetBrains Mono Semibold&amp;quot;, Consolas, monospace, &amp;quot;Courier New&amp;quot;, Consolas, &amp;quot;Courier New&amp;quot;, monospace; font-weight: normal; font-size: 18px; line-height: 24px; white-space: pre;&quot;&gt;&lt;div style=&quot;&quot;&gt;&lt;span style=&quot;color: rgb(64, 120, 242);&quot;&gt;command_set_game_status&lt;/span&gt;&lt;/div&gt;&lt;/div&gt;" style="text;whiteSpace=wrap;html=1;fillColor=#d5e8d4;strokeColor=#82b366;align=center;verticalAlign=middle;" vertex="1" parent="1">
          <mxGeometry x="225" y="1367.5" width="280" height="50" as="geometry" />
        </mxCell>
        <mxCell id="UmsV-8-wk9cn-iWYfX4L-63" value="&lt;div style=&quot;color: rgb(56, 58, 66); font-family: &amp;quot;Cascadia Mono Seimibold&amp;quot;, &amp;quot;JetBrains Mono Semibold&amp;quot;, Consolas, monospace, &amp;quot;Courier New&amp;quot;, Consolas, &amp;quot;Courier New&amp;quot;, monospace; font-weight: normal; font-size: 18px; line-height: 24px; white-space: pre;&quot;&gt;&lt;div style=&quot;&quot;&gt;&lt;span style=&quot;color: rgb(64, 120, 242);&quot;&gt;command_timer_callback&lt;/span&gt;&lt;/div&gt;&lt;/div&gt;" style="text;whiteSpace=wrap;html=1;align=center;verticalAlign=middle;fillColor=#d5e8d4;strokeColor=#82b366;" vertex="1" parent="1">
          <mxGeometry x="640" y="1470" width="270" height="50" as="geometry" />
        </mxCell>
        <mxCell id="UmsV-8-wk9cn-iWYfX4L-64" value="&lt;div style=&quot;font-family: &amp;quot;Cascadia Mono Seimibold&amp;quot;, &amp;quot;JetBrains Mono Semibold&amp;quot;, Consolas, monospace, &amp;quot;Courier New&amp;quot;, Consolas, &amp;quot;Courier New&amp;quot;, monospace; font-weight: normal; font-size: 18px; line-height: 24px; white-space: pre;&quot;&gt;&lt;div style=&quot;&quot;&gt;&lt;span style=&quot;&quot;&gt;led_set_flash_mode&lt;/span&gt;&lt;/div&gt;&lt;/div&gt;" style="text;whiteSpace=wrap;html=1;fillColor=#b1ddf0;strokeColor=#10739e;align=center;verticalAlign=middle;" vertex="1" parent="1">
          <mxGeometry x="670" y="1310" width="210" height="50" as="geometry" />
        </mxCell>
        <mxCell id="UmsV-8-wk9cn-iWYfX4L-65" style="edgeStyle=orthogonalEdgeStyle;rounded=0;orthogonalLoop=1;jettySize=auto;html=1;exitDx=0;exitDy=0;entryDx=0;entryDy=0;entryPerimeter=0;noEdgeStyle=1;orthogonal=1;" edge="1" parent="1" source="UmsV-8-wk9cn-iWYfX4L-4" target="UmsV-8-wk9cn-iWYfX4L-9">
          <mxGeometry relative="1" as="geometry">
            <Array as="points">
              <mxPoint x="132" y="1463.3333333333333" />
              <mxPoint x="208" y="1585" />
            </Array>
          </mxGeometry>
        </mxCell>
        <mxCell id="UmsV-8-wk9cn-iWYfX4L-66" value="&lt;div style=&quot;color: rgb(56, 58, 66); font-family: &amp;quot;Cascadia Mono Seimibold&amp;quot;, &amp;quot;JetBrains Mono Semibold&amp;quot;, Consolas, monospace, &amp;quot;Courier New&amp;quot;, Consolas, &amp;quot;Courier New&amp;quot;, monospace; font-weight: normal; font-size: 18px; line-height: 24px; white-space: pre;&quot;&gt;&lt;div style=&quot;&quot;&gt;&lt;span style=&quot;color: rgb(64, 120, 242);&quot;&gt;command_game_timer_callback&lt;/span&gt;&lt;/div&gt;&lt;/div&gt;" style="text;whiteSpace=wrap;html=1;align=center;verticalAlign=middle;fillColor=#d5e8d4;strokeColor=#82b366;" vertex="1" parent="1">
          <mxGeometry x="610" y="1550" width="330" height="50" as="geometry" />
        </mxCell>
        <mxCell id="rtL32HqUFVVKkPNNqH5C-1" style="edgeStyle=orthogonalEdgeStyle;rounded=0;orthogonalLoop=1;jettySize=auto;html=1;exitDx=0;exitDy=0;entryDx=0;entryDy=0;noEdgeStyle=1;orthogonal=1;" edge="1" parent="1" source="rtL32HqUFVVKkPNNqH5C-3" target="rtL32HqUFVVKkPNNqH5C-4">
          <mxGeometry relative="1" as="geometry">
            <Array as="points">
              <mxPoint x="112" y="2875" />
              <mxPoint x="188" y="2845" />
            </Array>
          </mxGeometry>
        </mxCell>
        <mxCell id="rtL32HqUFVVKkPNNqH5C-2" style="edgeStyle=orthogonalEdgeStyle;rounded=0;orthogonalLoop=1;jettySize=auto;html=1;noEdgeStyle=1;orthogonal=1;" edge="1" parent="1" source="rtL32HqUFVVKkPNNqH5C-3" target="rtL32HqUFVVKkPNNqH5C-5">
          <mxGeometry relative="1" as="geometry">
            <Array as="points">
              <mxPoint x="112" y="2895" />
              <mxPoint x="188" y="2925" />
            </Array>
          </mxGeometry>
        </mxCell>
        <mxCell id="rtL32HqUFVVKkPNNqH5C-3" value="&lt;span style=&quot;color: rgb(0, 0, 0); font-family: NeverMind, sans-serif, &amp;quot;Microsoft YaHei&amp;quot;, &amp;quot;PingFang SC&amp;quot;, &amp;quot;Microsoft JhengHei&amp;quot;, &amp;quot;Apple Color Emoji&amp;quot;, &amp;quot;Segoe UI Emoji&amp;quot;, &amp;quot;Segoe UI Symbol&amp;quot;, &amp;quot;Noto Color Emoji&amp;quot;; font-size: 18px; font-style: normal; font-variant-ligatures: normal; font-variant-caps: normal; font-weight: 600; letter-spacing: normal; orphans: 2; text-indent: 0px; text-transform: none; white-space: break-spaces; widows: 2; word-spacing: 0px; -webkit-text-stroke-width: 0px; text-decoration-thickness: initial; text-decoration-style: initial; text-decoration-color: initial; float: none; display: inline !important;&quot;&gt;battery.c&lt;/span&gt;" style="text;whiteSpace=wrap;html=1;align=center;verticalAlign=middle;fillColor=#ffe6cc;strokeColor=#d79b00;" vertex="1" parent="1">
          <mxGeometry y="2860" width="100" height="50" as="geometry" />
        </mxCell>
        <mxCell id="rtL32HqUFVVKkPNNqH5C-4" value="&lt;div style=&quot;color: rgb(56, 58, 66); font-family: &amp;quot;Cascadia Mono Seimibold&amp;quot;, &amp;quot;JetBrains Mono Semibold&amp;quot;, Consolas, monospace, &amp;quot;Courier New&amp;quot;, Consolas, &amp;quot;Courier New&amp;quot;, monospace; font-weight: normal; font-size: 18px; line-height: 24px; white-space: pre;&quot;&gt;&lt;div style=&quot;&quot;&gt;&lt;span style=&quot;color: rgb(64, 120, 242);&quot;&gt;battery_init&lt;/span&gt;&lt;/div&gt;&lt;/div&gt;" style="text;whiteSpace=wrap;html=1;align=center;verticalAlign=middle;fillColor=#ffe6cc;strokeColor=#d79b00;" vertex="1" parent="1">
          <mxGeometry x="202.5" y="2820" width="225" height="50" as="geometry" />
        </mxCell>
        <mxCell id="rtL32HqUFVVKkPNNqH5C-5" value="&lt;div style=&quot;color: rgb(56, 58, 66); font-family: &amp;quot;Cascadia Mono Seimibold&amp;quot;, &amp;quot;JetBrains Mono Semibold&amp;quot;, Consolas, monospace, &amp;quot;Courier New&amp;quot;, Consolas, &amp;quot;Courier New&amp;quot;, monospace; font-weight: normal; font-size: 18px; line-height: 24px; white-space: pre;&quot;&gt;&lt;div style=&quot;&quot;&gt;&lt;span style=&quot;color: rgb(64, 120, 242);&quot;&gt;battery_read_voltage&lt;/span&gt;&lt;/div&gt;&lt;/div&gt;" style="text;whiteSpace=wrap;html=1;align=center;verticalAlign=middle;fillColor=#ffe6cc;strokeColor=#d79b00;" vertex="1" parent="1">
          <mxGeometry x="200" y="2900" width="230" height="50" as="geometry" />
        </mxCell>
        <mxCell id="rtL32HqUFVVKkPNNqH5C-6" style="edgeStyle=orthogonalEdgeStyle;rounded=0;orthogonalLoop=1;jettySize=auto;html=1;noEdgeStyle=1;orthogonal=1;" edge="1" parent="1" source="rtL32HqUFVVKkPNNqH5C-8" target="rtL32HqUFVVKkPNNqH5C-9">
          <mxGeometry relative="1" as="geometry">
            <Array as="points">
              <mxPoint x="182" y="3065" />
              <mxPoint x="258" y="3035" />
            </Array>
          </mxGeometry>
        </mxCell>
        <mxCell id="rtL32HqUFVVKkPNNqH5C-7" style="edgeStyle=orthogonalEdgeStyle;rounded=0;orthogonalLoop=1;jettySize=auto;html=1;entryDx=0;entryDy=0;noEdgeStyle=1;orthogonal=1;" edge="1" parent="1" source="rtL32HqUFVVKkPNNqH5C-8" target="rtL32HqUFVVKkPNNqH5C-10">
          <mxGeometry relative="1" as="geometry">
            <Array as="points">
              <mxPoint x="182" y="3085" />
              <mxPoint x="258" y="3115" />
            </Array>
          </mxGeometry>
        </mxCell>
        <mxCell id="rtL32HqUFVVKkPNNqH5C-8" value="&lt;span style=&quot;color: rgb(0, 0, 0); font-family: NeverMind, sans-serif, &amp;quot;Microsoft YaHei&amp;quot;, &amp;quot;PingFang SC&amp;quot;, &amp;quot;Microsoft JhengHei&amp;quot;, &amp;quot;Apple Color Emoji&amp;quot;, &amp;quot;Segoe UI Emoji&amp;quot;, &amp;quot;Segoe UI Symbol&amp;quot;, &amp;quot;Noto Color Emoji&amp;quot;; font-size: 18px; font-style: normal; font-variant-ligatures: normal; font-variant-caps: normal; font-weight: 600; letter-spacing: normal; orphans: 2; text-indent: 0px; text-transform: none; white-space: break-spaces; widows: 2; word-spacing: 0px; -webkit-text-stroke-width: 0px; text-decoration-thickness: initial; text-decoration-style: initial; text-decoration-color: initial; float: none; display: inline !important;&quot;&gt;color_predictor.c&lt;/span&gt;" style="text;whiteSpace=wrap;html=1;fillColor=#fff2cc;strokeColor=#d6b656;align=center;verticalAlign=middle;" vertex="1" parent="1">
          <mxGeometry y="3050" width="170" height="50" as="geometry" />
        </mxCell>
        <mxCell id="rtL32HqUFVVKkPNNqH5C-9" value="&lt;div style=&quot;color: rgb(56, 58, 66); font-family: &amp;quot;Cascadia Mono Seimibold&amp;quot;, &amp;quot;JetBrains Mono Semibold&amp;quot;, Consolas, monospace, &amp;quot;Courier New&amp;quot;, Consolas, &amp;quot;Courier New&amp;quot;, monospace; font-weight: normal; font-size: 18px; line-height: 24px; white-space: pre;&quot;&gt;&lt;div style=&quot;&quot;&gt;&lt;span style=&quot;color: rgb(64, 120, 242);&quot;&gt;predict_color&lt;/span&gt;&lt;/div&gt;&lt;/div&gt;" style="text;whiteSpace=wrap;html=1;align=center;verticalAlign=middle;fillColor=#fff2cc;strokeColor=#d6b656;" vertex="1" parent="1">
          <mxGeometry x="335" y="3010" width="170" height="50" as="geometry" />
        </mxCell>
        <mxCell id="rtL32HqUFVVKkPNNqH5C-10" value="&lt;div style=&quot;color: rgb(56, 58, 66); font-family: &amp;quot;Cascadia Mono Seimibold&amp;quot;, &amp;quot;JetBrains Mono Semibold&amp;quot;, Consolas, monospace, &amp;quot;Courier New&amp;quot;, Consolas, &amp;quot;Courier New&amp;quot;, monospace; font-weight: normal; font-size: 18px; line-height: 24px; white-space: pre;&quot;&gt;&lt;div style=&quot;&quot;&gt;&lt;span style=&quot;color: rgb(64, 120, 242);&quot;&gt;initialize_neural_network&lt;/span&gt;&lt;/div&gt;&lt;/div&gt;" style="text;whiteSpace=wrap;html=1;fillColor=#fff2cc;strokeColor=#d6b656;align=center;verticalAlign=middle;" vertex="1" parent="1">
          <mxGeometry x="270" y="3090" width="300" height="50" as="geometry" />
        </mxCell>
        <mxCell id="rtL32HqUFVVKkPNNqH5C-11" style="edgeStyle=orthogonalEdgeStyle;rounded=0;orthogonalLoop=1;jettySize=auto;html=1;noEdgeStyle=1;orthogonal=1;" edge="1" parent="1" source="rtL32HqUFVVKkPNNqH5C-15" target="rtL32HqUFVVKkPNNqH5C-16">
          <mxGeometry relative="1" as="geometry">
            <Array as="points">
              <mxPoint x="132" y="3330" />
              <mxPoint x="208" y="3225" />
            </Array>
          </mxGeometry>
        </mxCell>
        <mxCell id="rtL32HqUFVVKkPNNqH5C-12" style="edgeStyle=orthogonalEdgeStyle;rounded=0;orthogonalLoop=1;jettySize=auto;html=1;entryDx=0;entryDy=0;noEdgeStyle=1;orthogonal=1;" edge="1" parent="1" source="rtL32HqUFVVKkPNNqH5C-15" target="rtL32HqUFVVKkPNNqH5C-18">
          <mxGeometry relative="1" as="geometry">
            <Array as="points">
              <mxPoint x="134" y="3340" />
              <mxPoint x="208" y="3305" />
            </Array>
          </mxGeometry>
        </mxCell>
        <mxCell id="rtL32HqUFVVKkPNNqH5C-13" style="edgeStyle=orthogonalEdgeStyle;rounded=0;orthogonalLoop=1;jettySize=auto;html=1;entryDx=0;entryDy=0;noEdgeStyle=1;orthogonal=1;" edge="1" parent="1" source="rtL32HqUFVVKkPNNqH5C-15" target="rtL32HqUFVVKkPNNqH5C-17">
          <mxGeometry relative="1" as="geometry">
            <Array as="points">
              <mxPoint x="134" y="3350" />
              <mxPoint x="208" y="3385" />
            </Array>
          </mxGeometry>
        </mxCell>
        <mxCell id="rtL32HqUFVVKkPNNqH5C-14" style="edgeStyle=orthogonalEdgeStyle;rounded=0;orthogonalLoop=1;jettySize=auto;html=1;entryDx=0;entryDy=0;noEdgeStyle=1;orthogonal=1;" edge="1" parent="1" source="rtL32HqUFVVKkPNNqH5C-15" target="rtL32HqUFVVKkPNNqH5C-19">
          <mxGeometry relative="1" as="geometry">
            <Array as="points">
              <mxPoint x="132" y="3360" />
              <mxPoint x="208" y="3465" />
            </Array>
          </mxGeometry>
        </mxCell>
        <mxCell id="rtL32HqUFVVKkPNNqH5C-15" value="&lt;span style=&quot;color: rgb(0, 0, 0); font-family: NeverMind, sans-serif, &amp;quot;Microsoft YaHei&amp;quot;, &amp;quot;PingFang SC&amp;quot;, &amp;quot;Microsoft JhengHei&amp;quot;, &amp;quot;Apple Color Emoji&amp;quot;, &amp;quot;Segoe UI Emoji&amp;quot;, &amp;quot;Segoe UI Symbol&amp;quot;, &amp;quot;Noto Color Emoji&amp;quot;; font-size: 18px; font-style: normal; font-variant-ligatures: normal; font-variant-caps: normal; font-weight: 600; letter-spacing: normal; orphans: 2; text-indent: 0px; text-transform: none; white-space: break-spaces; widows: 2; word-spacing: 0px; -webkit-text-stroke-width: 0px; text-decoration-thickness: initial; text-decoration-style: initial; text-decoration-color: initial; float: none; display: inline !important;&quot;&gt;gap.c&lt;/span&gt;" style="text;whiteSpace=wrap;html=1;align=center;verticalAlign=middle;fillColor=#f8cecc;strokeColor=#b85450;" vertex="1" parent="1">
          <mxGeometry y="3320" width="120" height="50" as="geometry" />
        </mxCell>
        <mxCell id="rtL32HqUFVVKkPNNqH5C-16" value="&lt;div style=&quot;color: rgb(56, 58, 66); font-family: &amp;quot;Cascadia Mono Seimibold&amp;quot;, &amp;quot;JetBrains Mono Semibold&amp;quot;, Consolas, monospace, &amp;quot;Courier New&amp;quot;, Consolas, &amp;quot;Courier New&amp;quot;, monospace; font-weight: normal; font-size: 18px; line-height: 24px; white-space: pre;&quot;&gt;&lt;div style=&quot;&quot;&gt;&lt;span style=&quot;color: rgb(64, 120, 242);&quot;&gt;advertise&lt;/span&gt;&lt;/div&gt;&lt;/div&gt;" style="text;whiteSpace=wrap;html=1;fillColor=#f8cecc;strokeColor=#b85450;align=center;verticalAlign=middle;" vertex="1" parent="1">
          <mxGeometry x="265" y="3200" width="130" height="50" as="geometry" />
        </mxCell>
        <mxCell id="rtL32HqUFVVKkPNNqH5C-17" value="&lt;div style=&quot;color: rgb(56, 58, 66); font-family: &amp;quot;Cascadia Mono Seimibold&amp;quot;, &amp;quot;JetBrains Mono Semibold&amp;quot;, Consolas, monospace, &amp;quot;Courier New&amp;quot;, Consolas, &amp;quot;Courier New&amp;quot;, monospace; font-weight: normal; font-size: 18px; line-height: 24px; white-space: pre;&quot;&gt;&lt;div style=&quot;&quot;&gt;&lt;span style=&quot;color: rgb(64, 120, 242);&quot;&gt;sync_cb&lt;/span&gt;&lt;/div&gt;&lt;/div&gt;" style="text;whiteSpace=wrap;html=1;fillColor=#f8cecc;strokeColor=#b85450;align=center;verticalAlign=middle;" vertex="1" parent="1">
          <mxGeometry x="275" y="3360" width="110" height="50" as="geometry" />
        </mxCell>
        <mxCell id="rtL32HqUFVVKkPNNqH5C-18" value="&lt;div style=&quot;color: rgb(56, 58, 66); font-family: &amp;quot;Cascadia Mono Seimibold&amp;quot;, &amp;quot;JetBrains Mono Semibold&amp;quot;, Consolas, monospace, &amp;quot;Courier New&amp;quot;, Consolas, &amp;quot;Courier New&amp;quot;, monospace; font-weight: normal; font-size: 18px; line-height: 24px; white-space: pre;&quot;&gt;&lt;div style=&quot;&quot;&gt;&lt;span style=&quot;color: rgb(64, 120, 242);&quot;&gt;gap_event_handler&lt;/span&gt;&lt;/div&gt;&lt;/div&gt;" style="text;whiteSpace=wrap;html=1;fillColor=#f8cecc;strokeColor=#b85450;align=center;verticalAlign=middle;" vertex="1" parent="1">
          <mxGeometry x="220" y="3280" width="220" height="50" as="geometry" />
        </mxCell>
        <mxCell id="rtL32HqUFVVKkPNNqH5C-19" value="&lt;div style=&quot;color: rgb(56, 58, 66); font-family: &amp;quot;Cascadia Mono Seimibold&amp;quot;, &amp;quot;JetBrains Mono Semibold&amp;quot;, Consolas, monospace, &amp;quot;Courier New&amp;quot;, Consolas, &amp;quot;Courier New&amp;quot;, monospace; font-weight: normal; font-size: 18px; line-height: 24px; white-space: pre;&quot;&gt;&lt;div style=&quot;&quot;&gt;&lt;span style=&quot;color: rgb(64, 120, 242);&quot;&gt;host_task&lt;/span&gt;&lt;/div&gt;&lt;/div&gt;" style="text;whiteSpace=wrap;html=1;fillColor=#f8cecc;strokeColor=#b85450;align=center;verticalAlign=middle;" vertex="1" parent="1">
          <mxGeometry x="265" y="3440" width="130" height="50" as="geometry" />
        </mxCell>
      </root>
    </mxGraphModel>
  </diagram>
  <diagram id="faG3Gv2eiCv89rsUjU0X" name="第 2 页">
    <mxGraphModel dx="1687" dy="1024" grid="1" gridSize="10" guides="1" tooltips="1" connect="1" arrows="1" fold="1" page="1" pageScale="1" pageWidth="1169" pageHeight="827" math="0" shadow="0">
      <root>
        <mxCell id="0" />
        <mxCell id="1" parent="0" />
        <mxCell id="_UO_TRLCkMGNp5baQYdT-3" style="edgeStyle=orthogonalEdgeStyle;rounded=0;orthogonalLoop=1;jettySize=auto;html=1;entryDx=0;entryDy=0;noEdgeStyle=1;orthogonal=1;" edge="1" parent="1" source="_UO_TRLCkMGNp5baQYdT-1" target="_UO_TRLCkMGNp5baQYdT-2">
          <mxGeometry relative="1" as="geometry">
            <Array as="points">
              <mxPoint x="270" y="65" />
              <mxPoint x="270" y="80" />
              <mxPoint x="140" y="80" />
              <mxPoint x="140" y="85" />
            </Array>
          </mxGeometry>
        </mxCell>
        <mxCell id="_UO_TRLCkMGNp5baQYdT-5" style="edgeStyle=orthogonalEdgeStyle;rounded=0;orthogonalLoop=1;jettySize=auto;html=1;exitDx=0;exitDy=0;noEdgeStyle=1;orthogonal=1;" edge="1" parent="1" source="_UO_TRLCkMGNp5baQYdT-1" target="_UO_TRLCkMGNp5baQYdT-4">
          <mxGeometry relative="1" as="geometry">
            <Array as="points">
              <mxPoint x="270" y="65" />
              <mxPoint x="270" y="80" />
              <mxPoint x="400" y="80" />
              <mxPoint x="400" y="85" />
            </Array>
          </mxGeometry>
        </mxCell>
        <mxCell id="_UO_TRLCkMGNp5baQYdT-1" value="&lt;div style=&quot;color: rgb(56, 58, 66); font-family: &amp;quot;Cascadia Mono Seimibold&amp;quot;, &amp;quot;JetBrains Mono Semibold&amp;quot;, Consolas, monospace, &amp;quot;Courier New&amp;quot;, Consolas, &amp;quot;Courier New&amp;quot;, monospace; font-weight: normal; font-size: 18px; line-height: 24px; white-space: pre;&quot;&gt;&lt;div style=&quot;&quot;&gt;&lt;span style=&quot;color: rgb(1, 132, 188);&quot;&gt;QueueHandle_t&lt;/span&gt;&lt;/div&gt;&lt;/div&gt;" style="text;whiteSpace=wrap;html=1;align=center;verticalAlign=middle;fillColor=#ffe6cc;strokeColor=#d79b00;" vertex="1" parent="1">
          <mxGeometry x="185" y="20" width="170" height="50" as="geometry" />
        </mxCell>
        <mxCell id="_UO_TRLCkMGNp5baQYdT-2" value="&lt;div style=&quot;color: rgb(56, 58, 66); font-family: &amp;quot;Cascadia Mono Seimibold&amp;quot;, &amp;quot;JetBrains Mono Semibold&amp;quot;, Consolas, monospace, &amp;quot;Courier New&amp;quot;, Consolas, &amp;quot;Courier New&amp;quot;, monospace; font-weight: normal; font-size: 18px; line-height: 24px; white-space: pre;&quot;&gt;&lt;div style=&quot;&quot;&gt;&lt;div style=&quot;line-height: 24px;&quot;&gt;&lt;span style=&quot;color: rgb(228, 86, 73);&quot;&gt;gpio_intr_evt_queue&lt;/span&gt;&lt;/div&gt;&lt;/div&gt;&lt;/div&gt;" style="text;whiteSpace=wrap;html=1;align=center;verticalAlign=middle;fillColor=#ffe6cc;strokeColor=#d79b00;" vertex="1" parent="1">
          <mxGeometry x="20" y="90" width="240" height="50" as="geometry" />
        </mxCell>
        <mxCell id="_UO_TRLCkMGNp5baQYdT-4" value="&lt;div style=&quot;color: rgb(56, 58, 66); font-family: &amp;quot;Cascadia Mono Seimibold&amp;quot;, &amp;quot;JetBrains Mono Semibold&amp;quot;, Consolas, monospace, &amp;quot;Courier New&amp;quot;, Consolas, &amp;quot;Courier New&amp;quot;, monospace; font-weight: normal; font-size: 18px; line-height: 24px; white-space: pre;&quot;&gt;&lt;div style=&quot;&quot;&gt;&lt;div style=&quot;line-height: 24px;&quot;&gt;&lt;div style=&quot;line-height: 24px;&quot;&gt;&lt;span&gt;&lt;span style=&quot;color: rgb(228, 86, 73);&quot;&gt;motor_queue&lt;/span&gt;[&lt;span style=&quot;color: rgb(152, 104, 1);&quot;&gt;2&lt;/span&gt;]&lt;/span&gt;&lt;/div&gt;&lt;/div&gt;&lt;/div&gt;&lt;/div&gt;" style="text;whiteSpace=wrap;html=1;align=center;verticalAlign=middle;fillColor=#ffe6cc;strokeColor=#d79b00;" vertex="1" parent="1">
          <mxGeometry x="280" y="90" width="240" height="50" as="geometry" />
        </mxCell>
      </root>
    </mxGraphModel>
  </diagram>
  <diagram id="n3C2ct-vOyR3KovE4_xO" name="第 3 页">
    <mxGraphModel dx="1304" dy="791" grid="1" gridSize="10" guides="1" tooltips="1" connect="1" arrows="1" fold="1" page="1" pageScale="1" pageWidth="1169" pageHeight="827" math="0" shadow="0">
      <root>
        <mxCell id="0" />
        <mxCell id="1" parent="0" />
        <mxCell id="On3hcHKvh9iB-CmUhI6M-15" value="GPIO 中断使用流程" style="swimlane;whiteSpace=wrap;html=1;" vertex="1" parent="1">
          <mxGeometry x="70" y="70" width="540" height="440" as="geometry" />
        </mxCell>
        <mxCell id="On3hcHKvh9iB-CmUhI6M-7" style="edgeStyle=orthogonalEdgeStyle;rounded=0;orthogonalLoop=1;jettySize=auto;html=1;noEdgeStyle=1;orthogonal=1;" edge="1" parent="On3hcHKvh9iB-CmUhI6M-15" source="On3hcHKvh9iB-CmUhI6M-1" target="On3hcHKvh9iB-CmUhI6M-3">
          <mxGeometry relative="1" as="geometry">
            <Array as="points">
              <mxPoint x="262" y="121.25" />
              <mxPoint x="338" y="50" />
            </Array>
          </mxGeometry>
        </mxCell>
        <mxCell id="On3hcHKvh9iB-CmUhI6M-8" style="edgeStyle=orthogonalEdgeStyle;rounded=0;orthogonalLoop=1;jettySize=auto;html=1;noEdgeStyle=1;orthogonal=1;" edge="1" parent="On3hcHKvh9iB-CmUhI6M-15" source="On3hcHKvh9iB-CmUhI6M-1" target="On3hcHKvh9iB-CmUhI6M-4">
          <mxGeometry relative="1" as="geometry">
            <Array as="points">
              <mxPoint x="264" y="133.75" />
              <mxPoint x="338" y="110" />
            </Array>
          </mxGeometry>
        </mxCell>
        <mxCell id="On3hcHKvh9iB-CmUhI6M-9" style="edgeStyle=orthogonalEdgeStyle;rounded=0;orthogonalLoop=1;jettySize=auto;html=1;entryX=0;entryY=0.5;entryDx=0;entryDy=0;noEdgeStyle=1;orthogonal=1;" edge="1" parent="On3hcHKvh9iB-CmUhI6M-15" source="On3hcHKvh9iB-CmUhI6M-1" target="On3hcHKvh9iB-CmUhI6M-5">
          <mxGeometry relative="1" as="geometry">
            <Array as="points">
              <mxPoint x="264" y="146.25" />
              <mxPoint x="338" y="170" />
            </Array>
          </mxGeometry>
        </mxCell>
        <mxCell id="On3hcHKvh9iB-CmUhI6M-13" value="" style="edgeStyle=orthogonalEdgeStyle;rounded=0;orthogonalLoop=1;jettySize=auto;html=1;" edge="1" parent="On3hcHKvh9iB-CmUhI6M-15" source="On3hcHKvh9iB-CmUhI6M-1" target="On3hcHKvh9iB-CmUhI6M-11">
          <mxGeometry relative="1" as="geometry" />
        </mxCell>
        <mxCell id="On3hcHKvh9iB-CmUhI6M-1" value="配置GPIO引脚" style="rounded=1;whiteSpace=wrap;html=1;" vertex="1" parent="On3hcHKvh9iB-CmUhI6M-15">
          <mxGeometry x="130" y="110" width="120" height="60" as="geometry" />
        </mxCell>
        <mxCell id="On3hcHKvh9iB-CmUhI6M-2" value="中断类型" style="rounded=0;whiteSpace=wrap;html=1;" vertex="1" parent="On3hcHKvh9iB-CmUhI6M-15">
          <mxGeometry x="350" y="215" width="90" height="30" as="geometry" />
        </mxCell>
        <mxCell id="On3hcHKvh9iB-CmUhI6M-3" value="指定引脚编号" style="rounded=0;whiteSpace=wrap;html=1;" vertex="1" parent="On3hcHKvh9iB-CmUhI6M-15">
          <mxGeometry x="350" y="35" width="90" height="30" as="geometry" />
        </mxCell>
        <mxCell id="On3hcHKvh9iB-CmUhI6M-4" value="引脚工作模式" style="rounded=0;whiteSpace=wrap;html=1;" vertex="1" parent="On3hcHKvh9iB-CmUhI6M-15">
          <mxGeometry x="350" y="95" width="90" height="30" as="geometry" />
        </mxCell>
        <mxCell id="On3hcHKvh9iB-CmUhI6M-5" value="上拉/下拉电阻" style="rounded=0;whiteSpace=wrap;html=1;" vertex="1" parent="On3hcHKvh9iB-CmUhI6M-15">
          <mxGeometry x="350" y="155" width="90" height="30" as="geometry" />
        </mxCell>
        <mxCell id="On3hcHKvh9iB-CmUhI6M-10" style="edgeStyle=orthogonalEdgeStyle;rounded=0;orthogonalLoop=1;jettySize=auto;html=1;exitX=1;exitY=0.75;exitDx=0;exitDy=0;entryX=-0.007;entryY=0.6;entryDx=0;entryDy=0;entryPerimeter=0;noEdgeStyle=1;orthogonal=1;" edge="1" parent="On3hcHKvh9iB-CmUhI6M-15" source="On3hcHKvh9iB-CmUhI6M-1" target="On3hcHKvh9iB-CmUhI6M-2">
          <mxGeometry relative="1" as="geometry">
            <Array as="points">
              <mxPoint x="262" y="158.75" />
              <mxPoint x="338" y="230" />
            </Array>
          </mxGeometry>
        </mxCell>
        <mxCell id="On3hcHKvh9iB-CmUhI6M-14" value="" style="edgeStyle=orthogonalEdgeStyle;rounded=0;orthogonalLoop=1;jettySize=auto;html=1;" edge="1" parent="On3hcHKvh9iB-CmUhI6M-15" source="On3hcHKvh9iB-CmUhI6M-11" target="On3hcHKvh9iB-CmUhI6M-12">
          <mxGeometry relative="1" as="geometry" />
        </mxCell>
        <mxCell id="On3hcHKvh9iB-CmUhI6M-11" value="安装中断服务" style="rounded=1;whiteSpace=wrap;html=1;" vertex="1" parent="On3hcHKvh9iB-CmUhI6M-15">
          <mxGeometry x="130" y="227" width="120" height="60" as="geometry" />
        </mxCell>
        <mxCell id="On3hcHKvh9iB-CmUhI6M-12" value="添加中断处理程序" style="rounded=1;whiteSpace=wrap;html=1;" vertex="1" parent="On3hcHKvh9iB-CmUhI6M-15">
          <mxGeometry x="130" y="345" width="120" height="60" as="geometry" />
        </mxCell>
      </root>
    </mxGraphModel>
  </diagram>
</mxfile>
